<svg width="608" height="415" viewBox="0 0 608 415" fill="none" xmlns="http://www.w3.org/2000/svg">
<g filter="url(#filter0_d_1_1628)">
<g clip-path="url(#clip0_1_1628)">
<rect x="20" y="16" width="568" height="375" rx="8" fill="white"/>
<mask id="path-2-inside-1_1_1628" fill="white">
<path d="M20 24C20 19.5817 23.5817 16 28 16H580C584.418 16 588 19.5817 588 24V65H20V24Z"/>
</mask>
<path d="M20 24C20 19.5817 23.5817 16 28 16H580C584.418 16 588 19.5817 588 24V65H20V24Z" fill="white"/>
<path d="M18.5 24C18.5 18.7533 22.7533 14.5 28 14.5H580C585.247 14.5 589.5 18.7533 589.5 24H586.5C586.5 20.4101 583.59 17.5 580 17.5H28C24.4101 17.5 21.5 20.4101 21.5 24H18.5ZM589.5 65.5H18.5L21.5 64.5H586.5L589.5 65.5ZM18.5 65.5V24C18.5 18.7533 22.7533 14.5 28 14.5V17.5C24.4101 17.5 21.5 20.4101 21.5 24V64.5L18.5 65.5ZM580 14.5C585.247 14.5 589.5 18.7533 589.5 24V65.5L586.5 64.5V24C586.5 20.4101 583.59 17.5 580 17.5V14.5Z" fill="#F5F0E9" mask="url(#path-2-inside-1_1_1628)"/>
<path d="M36.565 34.4H37.705V48.185H36.565V34.4ZM35.185 37.25L36.04 37.385C35.965 38.6 35.695 40.34 35.29 41.42L34.405 41.12C34.81 40.115 35.08 38.465 35.185 37.25ZM37.81 37.16L38.59 36.815C39.055 37.625 39.52 38.69 39.685 39.335L38.845 39.755C38.68 39.095 38.23 38 37.81 37.16ZM40.87 35.105L41.965 35.285C41.575 37.475 40.915 39.605 40.075 41.015C39.85 40.85 39.34 40.61 39.055 40.49C39.94 39.17 40.54 37.13 40.87 35.105ZM40.885 37.58H47.86V38.66H40.54L40.885 37.58ZM43.315 34.46H44.44V47.21H43.315V34.46ZM40.12 41.78H47.53V42.845H40.12V41.78ZM38.995 46.595H48.22V47.675H38.995V46.595ZM57.895 36.215H58.99V44.525H57.895V36.215ZM61.57 34.685H62.68V46.715C62.68 47.48 62.485 47.825 62.005 48.005C61.51 48.2 60.67 48.23 59.29 48.215C59.23 47.915 59.05 47.405 58.87 47.075C59.95 47.12 60.88 47.105 61.165 47.09C61.45 47.09 61.57 47 61.57 46.715V34.685ZM52.33 41.63H55.885V42.635H52.33V41.63ZM55.405 41.63H56.455C56.455 41.63 56.455 41.96 56.44 42.11C56.275 45.875 56.125 47.24 55.705 47.72C55.465 48.02 55.18 48.11 54.745 48.155C54.355 48.185 53.62 48.185 52.885 48.14C52.87 47.84 52.75 47.42 52.57 47.15C53.32 47.225 54.025 47.225 54.295 47.225C54.55 47.225 54.685 47.195 54.82 47.06C55.105 46.745 55.255 45.41 55.405 41.825V41.63ZM51.445 36.11V38.99H55.285V36.11H51.445ZM50.425 35.105H56.365V40.025H50.425V35.105ZM52.075 39.635H53.185C53.005 42.8 52.585 46.31 50.275 48.245C50.11 47.975 49.765 47.63 49.495 47.465C51.625 45.74 51.94 42.455 52.075 39.635ZM71.5 39.71C72.37 39.71 73.09 40.43 73.09 41.3C73.09 42.185 72.37 42.905 71.5 42.905C70.615 42.905 69.895 42.185 69.895 41.3C69.895 40.43 70.615 39.71 71.5 39.71ZM83.155 34.355L84.28 34.64C83.455 36.86 82.12 38.945 80.725 40.295C80.5 40.1 80.035 39.725 79.75 39.575C81.175 38.33 82.42 36.38 83.155 34.355ZM82.915 36.215H92.59V37.31H82.375L82.915 36.215ZM82.18 39.62H92.26V40.67H83.305V44.225H82.18V39.62ZM79.705 43.655H93.295V44.75H79.705V43.655ZM86.68 36.785H87.835V48.215H86.68V36.785ZM98.845 39.56L108.145 38.39L108.31 39.455L99.01 40.625L98.845 39.56ZM104.71 35.255L105.535 34.715C106.435 35.435 107.5 36.455 108.01 37.145L107.14 37.745C106.66 37.07 105.595 36.005 104.71 35.255ZM98.68 34.565L99.745 34.91C98.62 37.535 96.835 40.115 94.96 41.795C94.84 41.525 94.51 40.955 94.3 40.7C96.04 39.245 97.69 36.935 98.68 34.565ZM96.985 38.555L98.125 37.43V37.445V48.185H96.985V38.555ZM102.205 34.625H103.345C103.555 41.36 104.59 46.655 106.855 46.865C107.275 46.895 107.53 46.01 107.68 44.255C107.905 44.48 108.4 44.765 108.61 44.855C108.295 47.465 107.68 48.23 106.9 48.2C103.525 47.96 102.535 42.29 102.205 34.625ZM112.24 39.035H116.125V40.145H112.24V39.035ZM111.58 34.49H112.735V46.715L111.58 47V34.49ZM109.57 46.715C111.37 46.37 114.07 45.755 116.59 45.17L116.71 46.25C114.325 46.835 111.79 47.435 109.93 47.87L109.57 46.715ZM122.11 37.685L122.95 38.63C121.57 39.53 119.665 40.415 117.97 41.135C117.895 40.865 117.715 40.475 117.565 40.235C119.2 39.545 121.03 38.54 122.11 37.685ZM117.25 34.49H118.39V45.83C118.39 46.67 118.525 46.82 119.23 46.82C119.56 46.82 121.15 46.82 121.57 46.82C122.275 46.82 122.365 46.265 122.455 44.09C122.74 44.3 123.205 44.51 123.52 44.585C123.37 47.03 123.07 47.885 121.645 47.885C121.33 47.885 119.41 47.885 119.125 47.885C117.64 47.885 117.25 47.45 117.25 45.815V34.49Z" fill="#676562"/>
<path d="M444.66 47V46.205C448.11 43.19 449.685 40.985 449.685 39.11C449.685 37.85 449.04 36.92 447.675 36.92C446.775 36.92 445.995 37.475 445.38 38.195L444.585 37.43C445.485 36.455 446.445 35.81 447.84 35.81C449.805 35.81 451.035 37.085 451.035 39.05C451.035 41.255 449.31 43.49 446.715 45.935C447.3 45.875 447.96 45.83 448.515 45.83H451.56V47H444.66ZM456.49 47.21C454.39 47.21 453.055 45.305 453.055 41.465C453.055 37.655 454.39 35.81 456.49 35.81C458.56 35.81 459.895 37.655 459.895 41.465C459.895 45.305 458.56 47.21 456.49 47.21ZM456.49 46.1C457.735 46.1 458.575 44.705 458.575 41.465C458.575 38.27 457.735 36.905 456.49 36.905C455.23 36.905 454.375 38.27 454.375 41.465C454.375 44.705 455.23 46.1 456.49 46.1ZM461.301 47V46.205C464.751 43.19 466.326 40.985 466.326 39.11C466.326 37.85 465.681 36.92 464.316 36.92C463.416 36.92 462.636 37.475 462.021 38.195L461.226 37.43C462.126 36.455 463.086 35.81 464.481 35.81C466.446 35.81 467.676 37.085 467.676 39.05C467.676 41.255 465.951 43.49 463.356 45.935C463.941 45.875 464.601 45.83 465.156 45.83H468.201V47H461.301ZM474.046 47V39.515C474.046 38.96 474.091 38.075 474.136 37.505H474.061C473.791 38.045 473.491 38.6 473.191 39.14L470.686 42.89H476.806V43.97H469.246V43.07L473.821 36.005H475.336V47H474.046ZM481.436 34.355L482.561 34.64C481.736 36.86 480.401 38.945 479.006 40.295C478.781 40.1 478.316 39.725 478.031 39.575C479.456 38.33 480.701 36.38 481.436 34.355ZM481.196 36.215H490.871V37.31H480.656L481.196 36.215ZM480.461 39.62H490.541V40.67H481.586V44.225H480.461V39.62ZM477.986 43.655H491.576V44.75H477.986V43.655ZM484.961 36.785H486.116V48.215H484.961V36.785Z" fill="#291C0A"/>
<path d="M526.17 47.71C524.07 47.71 522.735 45.805 522.735 41.965C522.735 38.155 524.07 36.31 526.17 36.31C528.24 36.31 529.575 38.155 529.575 41.965C529.575 45.805 528.24 47.71 526.17 47.71ZM526.17 46.6C527.415 46.6 528.255 45.205 528.255 41.965C528.255 38.77 527.415 37.405 526.17 37.405C524.91 37.405 524.055 38.77 524.055 41.965C524.055 45.205 524.91 46.6 526.17 46.6ZM531.64 47.5V46.36H534.085V38.17H532.12V37.285C533.11 37.12 533.815 36.865 534.4 36.505H535.45V46.36H537.67V47.5H531.64ZM542.436 35.695H550.266V36.79H542.436V35.695ZM542.436 39.31H550.326V40.39H542.436V39.31ZM542.316 42.94H550.251V44.02H542.316V42.94ZM541.746 35.695H542.886V40.33C542.886 42.925 542.511 46.465 539.931 48.715C539.766 48.475 539.316 48.07 539.076 47.905C541.491 45.79 541.746 42.745 541.746 40.33V35.695ZM549.771 35.695H550.941V47.05C550.941 47.845 550.731 48.235 550.161 48.43C549.576 48.625 548.586 48.64 546.966 48.64C546.891 48.31 546.681 47.77 546.486 47.455C547.731 47.5 548.961 47.485 549.306 47.485C549.651 47.47 549.771 47.365 549.771 47.035V35.695Z" fill="#291C0A"/>
<path d="M567.727 41.0275C568.091 41.2375 568.091 41.7624 567.727 41.9723L562.818 44.8066C562.455 45.0165 562 44.7541 562 44.3342L562 38.6657C562 38.2458 562.455 37.9833 562.818 38.1933L567.727 41.0275Z" fill="#291C0A"/>
<path d="M505.273 41.9722C504.909 41.7623 504.909 41.2374 505.273 41.0275L510.182 38.1932C510.545 37.9832 511 38.2457 511 38.6656L511 44.3341C511 44.754 510.545 45.0164 510.182 44.8065L505.273 41.9722Z" fill="#291C0A"/>
<mask id="path-9-inside-2_1_1628" fill="white">
<path d="M20 65H588V383C588 387.418 584.418 391 580 391H28C23.5817 391 20 387.418 20 383V65Z"/>
</mask>
<path d="M20 65H588V383C588 387.418 584.418 391 580 391H28C23.5817 391 20 387.418 20 383V65Z" fill="white"/>
<path d="M20 65H588H20ZM589.5 383C589.5 388.247 585.247 392.5 580 392.5H28C22.7533 392.5 18.5 388.247 18.5 383H21.5C21.5 386.59 24.4101 389.5 28 389.5H580C583.59 389.5 586.5 386.59 586.5 383H589.5ZM28 392.5C22.7533 392.5 18.5 388.247 18.5 383V65H21.5V383C21.5 386.59 24.4101 389.5 28 389.5V392.5ZM589.5 65V383C589.5 388.247 585.247 392.5 580 392.5V389.5C583.59 389.5 586.5 386.59 586.5 383V65H589.5Z" fill="#F5F0E9" mask="url(#path-9-inside-2_1_1628)"/>
<path d="M43.2394 301V300.24H44.8694V294.78H43.5594V294.19C44.2194 294.08 44.6894 293.91 45.0794 293.67H45.7794V300.24H47.2594V301H43.2394ZM50.6863 301.14C49.2863 301.14 48.3963 299.87 48.3963 297.31C48.3963 294.77 49.2863 293.54 50.6863 293.54C52.0663 293.54 52.9562 294.77 52.9562 297.31C52.9562 299.87 52.0663 301.14 50.6863 301.14ZM50.6863 300.4C51.5163 300.4 52.0763 299.47 52.0763 297.31C52.0763 295.18 51.5163 294.27 50.6863 294.27C49.8463 294.27 49.2763 295.18 49.2763 297.31C49.2763 299.47 49.8463 300.4 50.6863 300.4ZM56.2331 301.14C54.8331 301.14 53.9431 299.87 53.9431 297.31C53.9431 294.77 54.8331 293.54 56.2331 293.54C57.6131 293.54 58.5031 294.77 58.5031 297.31C58.5031 299.87 57.6131 301.14 56.2331 301.14ZM56.2331 300.4C57.0631 300.4 57.6231 299.47 57.6231 297.31C57.6231 295.18 57.0631 294.27 56.2331 294.27C55.3931 294.27 54.8231 295.18 54.8231 297.31C54.8231 299.47 55.3931 300.4 56.2331 300.4Z" fill="#676562"/>
<path d="M63 298L564 298" stroke="#DFDAD4" stroke-width="0.3"/>
<path d="M42.7994 279V278.47C45.0994 276.46 46.1494 274.99 46.1494 273.74C46.1494 272.9 45.7194 272.28 44.8094 272.28C44.2094 272.28 43.6894 272.65 43.2794 273.13L42.7494 272.62C43.3494 271.97 43.9894 271.54 44.9194 271.54C46.2294 271.54 47.0494 272.39 47.0494 273.7C47.0494 275.17 45.8994 276.66 44.1694 278.29C44.5594 278.25 44.9994 278.22 45.3694 278.22H47.3994V279H42.7994ZM50.6863 279.14C49.2863 279.14 48.3963 277.87 48.3963 275.31C48.3963 272.77 49.2863 271.54 50.6863 271.54C52.0663 271.54 52.9562 272.77 52.9562 275.31C52.9562 277.87 52.0663 279.14 50.6863 279.14ZM50.6863 278.4C51.5163 278.4 52.0763 277.47 52.0763 275.31C52.0763 273.18 51.5163 272.27 50.6863 272.27C49.8463 272.27 49.2763 273.18 49.2763 275.31C49.2763 277.47 49.8463 278.4 50.6863 278.4ZM56.2331 279.14C54.8331 279.14 53.9431 277.87 53.9431 275.31C53.9431 272.77 54.8331 271.54 56.2331 271.54C57.6131 271.54 58.5031 272.77 58.5031 275.31C58.5031 277.87 57.6131 279.14 56.2331 279.14ZM56.2331 278.4C57.0631 278.4 57.6231 277.47 57.6231 275.31C57.6231 273.18 57.0631 272.27 56.2331 272.27C55.3931 272.27 54.8231 273.18 54.8231 275.31C54.8231 277.47 55.3931 278.4 56.2331 278.4Z" fill="#676562"/>
<path d="M44.9894 257.14C43.8394 257.14 43.1294 256.66 42.6494 256.13L43.1094 255.53C43.5394 255.98 44.0894 256.38 44.9294 256.38C45.7994 256.38 46.4194 255.85 46.4194 255.01C46.4194 254.13 45.8294 253.55 44.1394 253.55V252.84C45.6494 252.84 46.1594 252.24 46.1594 251.44C46.1594 250.74 45.6894 250.28 44.9294 250.28C44.3394 250.28 43.8194 250.58 43.4094 251L42.9194 250.41C43.4694 249.91 44.1194 249.54 44.9594 249.54C46.1894 249.54 47.0894 250.21 47.0894 251.38C47.0894 252.27 46.5694 252.86 45.7894 253.14V253.18C46.6494 253.39 47.3494 254.04 47.3494 255.05C47.3494 256.35 46.2994 257.14 44.9894 257.14ZM50.6863 257.14C49.2863 257.14 48.3963 255.87 48.3963 253.31C48.3963 250.77 49.2863 249.54 50.6863 249.54C52.0663 249.54 52.9562 250.77 52.9562 253.31C52.9562 255.87 52.0663 257.14 50.6863 257.14ZM50.6863 256.4C51.5163 256.4 52.0763 255.47 52.0763 253.31C52.0763 251.18 51.5163 250.27 50.6863 250.27C49.8463 250.27 49.2763 251.18 49.2763 253.31C49.2763 255.47 49.8463 256.4 50.6863 256.4ZM56.2331 257.14C54.8331 257.14 53.9431 255.87 53.9431 253.31C53.9431 250.77 54.8331 249.54 56.2331 249.54C57.6131 249.54 58.5031 250.77 58.5031 253.31C58.5031 255.87 57.6131 257.14 56.2331 257.14ZM56.2331 256.4C57.0631 256.4 57.6231 255.47 57.6231 253.31C57.6231 251.18 57.0631 250.27 56.2331 250.27C55.3931 250.27 54.8231 251.18 54.8231 253.31C54.8231 255.47 55.3931 256.4 56.2331 256.4Z" fill="#676562"/>
<path d="M45.7494 235V230.01C45.7494 229.64 45.7794 229.05 45.8094 228.67H45.7594C45.5794 229.03 45.3794 229.4 45.1794 229.76L43.5094 232.26H47.5894V232.98H42.5494V232.38L45.5994 227.67H46.6094V235H45.7494ZM50.6863 235.14C49.2863 235.14 48.3963 233.87 48.3963 231.31C48.3963 228.77 49.2863 227.54 50.6863 227.54C52.0663 227.54 52.9562 228.77 52.9562 231.31C52.9562 233.87 52.0663 235.14 50.6863 235.14ZM50.6863 234.4C51.5163 234.4 52.0763 233.47 52.0763 231.31C52.0763 229.18 51.5163 228.27 50.6863 228.27C49.8463 228.27 49.2763 229.18 49.2763 231.31C49.2763 233.47 49.8463 234.4 50.6863 234.4ZM56.2331 235.14C54.8331 235.14 53.9431 233.87 53.9431 231.31C53.9431 228.77 54.8331 227.54 56.2331 227.54C57.6131 227.54 58.5031 228.77 58.5031 231.31C58.5031 233.87 57.6131 235.14 56.2331 235.14ZM56.2331 234.4C57.0631 234.4 57.6231 233.47 57.6231 231.31C57.6231 229.18 57.0631 228.27 56.2331 228.27C55.3931 228.27 54.8231 229.18 54.8231 231.31C54.8231 233.47 55.3931 234.4 56.2331 234.4Z" fill="#676562"/>
<path d="M44.9694 213.14C43.8294 213.14 43.1294 212.66 42.6294 212.16L43.0894 211.56C43.4994 211.99 44.0394 212.38 44.8794 212.38C45.7494 212.38 46.4394 211.71 46.4394 210.65C46.4394 209.6 45.8394 208.97 44.9294 208.97C44.4394 208.97 44.1294 209.13 43.7094 209.41L43.2194 209.1L43.4494 205.67H47.0194V206.45H44.2494L44.0594 208.57C44.3894 208.39 44.7194 208.28 45.1594 208.28C46.3794 208.28 47.3694 209 47.3694 210.62C47.3694 212.22 46.1994 213.14 44.9694 213.14ZM50.6863 213.14C49.2863 213.14 48.3963 211.87 48.3963 209.31C48.3963 206.77 49.2863 205.54 50.6863 205.54C52.0663 205.54 52.9562 206.77 52.9562 209.31C52.9562 211.87 52.0663 213.14 50.6863 213.14ZM50.6863 212.4C51.5163 212.4 52.0763 211.47 52.0763 209.31C52.0763 207.18 51.5163 206.27 50.6863 206.27C49.8463 206.27 49.2763 207.18 49.2763 209.31C49.2763 211.47 49.8463 212.4 50.6863 212.4ZM56.2331 213.14C54.8331 213.14 53.9431 211.87 53.9431 209.31C53.9431 206.77 54.8331 205.54 56.2331 205.54C57.6131 205.54 58.5031 206.77 58.5031 209.31C58.5031 211.87 57.6131 213.14 56.2331 213.14ZM56.2331 212.4C57.0631 212.4 57.6231 211.47 57.6231 209.31C57.6231 207.18 57.0631 206.27 56.2331 206.27C55.3931 206.27 54.8231 207.18 54.8231 209.31C54.8231 211.47 55.3931 212.4 56.2331 212.4Z" fill="#676562"/>
<path d="M45.3694 192.14C43.9594 192.14 42.9094 190.93 42.9094 188.51C42.9094 185.64 44.1994 184.54 45.6194 184.54C46.3794 184.54 46.9394 184.86 47.3394 185.29L46.8294 185.85C46.5494 185.51 46.0994 185.3 45.6594 185.3C44.6294 185.3 43.7694 186.11 43.7694 188.51C43.7694 190.39 44.3394 191.42 45.3694 191.42C46.0694 191.42 46.6094 190.75 46.6094 189.76C46.6094 188.76 46.1694 188.13 45.2894 188.13C44.8194 188.13 44.2294 188.41 43.7394 189.14L43.7094 188.41C44.1594 187.82 44.8394 187.46 45.4294 187.46C46.6694 187.46 47.4694 188.22 47.4694 189.76C47.4694 191.18 46.4994 192.14 45.3694 192.14ZM50.6863 192.14C49.2863 192.14 48.3963 190.87 48.3963 188.31C48.3963 185.77 49.2863 184.54 50.6863 184.54C52.0663 184.54 52.9562 185.77 52.9562 188.31C52.9562 190.87 52.0663 192.14 50.6863 192.14ZM50.6863 191.4C51.5163 191.4 52.0763 190.47 52.0763 188.31C52.0763 186.18 51.5163 185.27 50.6863 185.27C49.8463 185.27 49.2763 186.18 49.2763 188.31C49.2763 190.47 49.8463 191.4 50.6863 191.4ZM56.2331 192.14C54.8331 192.14 53.9431 190.87 53.9431 188.31C53.9431 185.77 54.8331 184.54 56.2331 184.54C57.6131 184.54 58.5031 185.77 58.5031 188.31C58.5031 190.87 57.6131 192.14 56.2331 192.14ZM56.2331 191.4C57.0631 191.4 57.6231 190.47 57.6231 188.31C57.6231 186.18 57.0631 185.27 56.2331 185.27C55.3931 185.27 54.8231 186.18 54.8231 188.31C54.8231 190.47 55.3931 191.4 56.2331 191.4Z" fill="#676562"/>
<path d="M44.3294 170C44.4594 167.23 44.9594 165.45 46.3994 163.45H42.8494V162.67H47.4294V163.22C45.7094 165.43 45.3994 167.14 45.2794 170H44.3294ZM50.6863 170.14C49.2863 170.14 48.3963 168.87 48.3963 166.31C48.3963 163.77 49.2863 162.54 50.6863 162.54C52.0663 162.54 52.9562 163.77 52.9562 166.31C52.9562 168.87 52.0663 170.14 50.6863 170.14ZM50.6863 169.4C51.5163 169.4 52.0763 168.47 52.0763 166.31C52.0763 164.18 51.5163 163.27 50.6863 163.27C49.8463 163.27 49.2763 164.18 49.2763 166.31C49.2763 168.47 49.8463 169.4 50.6863 169.4ZM56.2331 170.14C54.8331 170.14 53.9431 168.87 53.9431 166.31C53.9431 163.77 54.8331 162.54 56.2331 162.54C57.6131 162.54 58.5031 163.77 58.5031 166.31C58.5031 168.87 57.6131 170.14 56.2331 170.14ZM56.2331 169.4C57.0631 169.4 57.6231 168.47 57.6231 166.31C57.6231 164.18 57.0631 163.27 56.2331 163.27C55.3931 163.27 54.8231 164.18 54.8231 166.31C54.8231 168.47 55.3931 169.4 56.2331 169.4Z" fill="#676562"/>
<path d="M45.1494 148.14C43.7994 148.14 42.8094 147.32 42.8094 146.19C42.8094 145.2 43.4894 144.52 44.1594 144.16V144.12C43.6194 143.75 43.1594 143.19 43.1594 142.42C43.1594 141.31 44.0294 140.57 45.1794 140.57C46.4294 140.57 47.1894 141.37 47.1894 142.49C47.1894 143.27 46.6494 143.92 46.2094 144.26V144.31C46.8494 144.68 47.4494 145.24 47.4494 146.24C47.4494 147.31 46.5194 148.14 45.1494 148.14ZM45.6494 144.03C46.1494 143.59 46.4094 143.09 46.4094 142.54C46.4094 141.82 45.9494 141.24 45.1594 141.24C44.4894 141.24 43.9994 141.72 43.9994 142.42C43.9994 143.3 44.7894 143.69 45.6494 144.03ZM45.1694 147.45C46.0094 147.45 46.5694 146.94 46.5694 146.21C46.5694 145.23 45.6694 144.86 44.6394 144.44C44.0394 144.82 43.6294 145.4 43.6294 146.1C43.6294 146.88 44.2894 147.45 45.1694 147.45ZM50.6863 148.14C49.2863 148.14 48.3963 146.87 48.3963 144.31C48.3963 141.77 49.2863 140.54 50.6863 140.54C52.0663 140.54 52.9562 141.77 52.9562 144.31C52.9562 146.87 52.0663 148.14 50.6863 148.14ZM50.6863 147.4C51.5163 147.4 52.0763 146.47 52.0763 144.31C52.0763 142.18 51.5163 141.27 50.6863 141.27C49.8463 141.27 49.2763 142.18 49.2763 144.31C49.2763 146.47 49.8463 147.4 50.6863 147.4ZM56.2331 148.14C54.8331 148.14 53.9431 146.87 53.9431 144.31C53.9431 141.77 54.8331 140.54 56.2331 140.54C57.6131 140.54 58.5031 141.77 58.5031 144.31C58.5031 146.87 57.6131 148.14 56.2331 148.14ZM56.2331 147.4C57.0631 147.4 57.6231 146.47 57.6231 144.31C57.6231 142.18 57.0631 141.27 56.2331 141.27C55.3931 141.27 54.8231 142.18 54.8231 144.31C54.8231 146.47 55.3931 147.4 56.2331 147.4Z" fill="#676562"/>
<path d="M44.6994 126.14C43.8994 126.14 43.3394 125.82 42.9294 125.39L43.4394 124.81C43.7494 125.17 44.1994 125.38 44.6694 125.38C45.6494 125.38 46.4994 124.53 46.4994 122.02C46.4994 120.22 45.9294 119.25 44.8994 119.25C44.1994 119.25 43.6594 119.91 43.6594 120.92C43.6594 121.9 44.0994 122.55 44.9694 122.55C45.4594 122.55 46.0294 122.26 46.5094 121.53L46.5594 122.26C46.0994 122.84 45.4494 123.22 44.8194 123.22C43.5894 123.22 42.7994 122.44 42.7994 120.92C42.7994 119.5 43.7594 118.54 44.8994 118.54C46.3094 118.54 47.3594 119.69 47.3594 122.02C47.3594 125 46.0794 126.14 44.6994 126.14ZM50.6863 126.14C49.2863 126.14 48.3963 124.87 48.3963 122.31C48.3963 119.77 49.2863 118.54 50.6863 118.54C52.0663 118.54 52.9562 119.77 52.9562 122.31C52.9562 124.87 52.0663 126.14 50.6863 126.14ZM50.6863 125.4C51.5163 125.4 52.0763 124.47 52.0763 122.31C52.0763 120.18 51.5163 119.27 50.6863 119.27C49.8463 119.27 49.2763 120.18 49.2763 122.31C49.2763 124.47 49.8463 125.4 50.6863 125.4ZM56.2331 126.14C54.8331 126.14 53.9431 124.87 53.9431 122.31C53.9431 119.77 54.8331 118.54 56.2331 118.54C57.6131 118.54 58.5031 119.77 58.5031 122.31C58.5031 124.87 57.6131 126.14 56.2331 126.14ZM56.2331 125.4C57.0631 125.4 57.6231 124.47 57.6231 122.31C57.6231 120.18 57.0631 119.27 56.2331 119.27C55.3931 119.27 54.8231 120.18 54.8231 122.31C54.8231 124.47 55.3931 125.4 56.2331 125.4Z" fill="#676562"/>
<path d="M34.9093 104V103.24H36.5393V97.78H35.2293V97.19C35.8893 97.08 36.3593 96.91 36.7493 96.67H37.4493V103.24H38.9293V104H34.9093ZM40.3162 105.9L40.1062 105.37C40.7262 105.09 41.1062 104.59 41.1062 103.98L41.0062 103.16L41.4462 103.82C41.3262 103.97 41.1662 104.02 40.9862 104.02C40.6362 104.02 40.3262 103.79 40.3262 103.38C40.3262 102.98 40.6362 102.74 41.0062 102.74C41.4862 102.74 41.7762 103.15 41.7762 103.81C41.7762 104.78 41.2262 105.53 40.3162 105.9ZM45.1394 104.14C43.7394 104.14 42.8494 102.87 42.8494 100.31C42.8494 97.77 43.7394 96.54 45.1394 96.54C46.5194 96.54 47.4094 97.77 47.4094 100.31C47.4094 102.87 46.5194 104.14 45.1394 104.14ZM45.1394 103.4C45.9694 103.4 46.5294 102.47 46.5294 100.31C46.5294 98.18 45.9694 97.27 45.1394 97.27C44.2994 97.27 43.7294 98.18 43.7294 100.31C43.7294 102.47 44.2994 103.4 45.1394 103.4ZM50.6863 104.14C49.2863 104.14 48.3963 102.87 48.3963 100.31C48.3963 97.77 49.2863 96.54 50.6863 96.54C52.0663 96.54 52.9562 97.77 52.9562 100.31C52.9562 102.87 52.0663 104.14 50.6863 104.14ZM50.6863 103.4C51.5163 103.4 52.0763 102.47 52.0763 100.31C52.0763 98.18 51.5163 97.27 50.6863 97.27C49.8463 97.27 49.2763 98.18 49.2763 100.31C49.2763 102.47 49.8463 103.4 50.6863 103.4ZM56.2331 104.14C54.8331 104.14 53.9431 102.87 53.9431 100.31C53.9431 97.77 54.8331 96.54 56.2331 96.54C57.6131 96.54 58.5031 97.77 58.5031 100.31C58.5031 102.87 57.6131 104.14 56.2331 104.14ZM56.2331 103.4C57.0631 103.4 57.6231 102.47 57.6231 100.31C57.6231 98.18 57.0631 97.27 56.2331 97.27C55.3931 97.27 54.8231 98.18 54.8231 100.31C54.8231 102.47 55.3931 103.4 56.2331 103.4Z" fill="#676562"/>
<path d="M63 254L564 254" stroke="#DFDAD4" stroke-width="0.3"/>
<path d="M63 276L564 276" stroke="#DFDAD4" stroke-width="0.3"/>
<path d="M63 210L564 210" stroke="#DFDAD4" stroke-width="0.3"/>
<path d="M63 232L564 232" stroke="#DFDAD4" stroke-width="0.3"/>
<path d="M63 189L564 189" stroke="#DFDAD4" stroke-width="0.3"/>
<path d="M63 167L564 167" stroke="#DFDAD4" stroke-width="0.3"/>
<path d="M63 145L564 145" stroke="#DFDAD4" stroke-width="0.3"/>
<path d="M63 123L564 123" stroke="#DFDAD4" stroke-width="0.3"/>
<path d="M63 101L564 101" stroke="#DFDAD4" stroke-width="0.3"/>
<path d="M56.2331 323.14C54.8331 323.14 53.9431 321.87 53.9431 319.31C53.9431 316.77 54.8331 315.54 56.2331 315.54C57.6131 315.54 58.5031 316.77 58.5031 319.31C58.5031 321.87 57.6131 323.14 56.2331 323.14ZM56.2331 322.4C57.0631 322.4 57.6231 321.47 57.6231 319.31C57.6231 317.18 57.0631 316.27 56.2331 316.27C55.3931 316.27 54.8231 317.18 54.8231 319.31C54.8231 321.47 55.3931 322.4 56.2331 322.4Z" fill="#676562"/>
<path d="M63 320L564 320" stroke="#DFDAD4" stroke-width="0.3"/>
<rect x="73.001" y="268" width="34.5652" height="8" fill="#FFDEB0"/>
<rect x="73.001" y="276" width="34.5652" height="7" fill="#FFCE8A"/>
<rect x="73.001" y="283" width="34.5652" height="14" fill="#FFB854"/>
<rect x="73.001" y="297" width="34.5652" height="23" fill="#FF9500"/>
<path d="M70.3321 334V333.24H71.9621V327.78H70.6521V327.19C71.3121 327.08 71.7821 326.91 72.1721 326.67H72.8721V333.24H74.3521V334H70.3321ZM77.779 334.14C76.379 334.14 75.489 332.87 75.489 330.31C75.489 327.77 76.379 326.54 77.779 326.54C79.159 326.54 80.049 327.77 80.049 330.31C80.049 332.87 79.159 334.14 77.779 334.14ZM77.779 333.4C78.609 333.4 79.169 332.47 79.169 330.31C79.169 328.18 78.609 327.27 77.779 327.27C76.939 327.27 76.369 328.18 76.369 330.31C76.369 332.47 76.939 333.4 77.779 333.4ZM83.7759 329.04L89.9759 328.26L90.0859 328.97L83.8859 329.75L83.7759 329.04ZM87.6859 326.17L88.2359 325.81C88.8359 326.29 89.5459 326.97 89.8859 327.43L89.3059 327.83C88.9859 327.38 88.2759 326.67 87.6859 326.17ZM83.6659 325.71L84.3759 325.94C83.6259 327.69 82.4359 329.41 81.1859 330.53C81.1059 330.35 80.8859 329.97 80.7459 329.8C81.9059 328.83 83.0059 327.29 83.6659 325.71ZM82.5359 328.37L83.2959 327.62V327.63V334.79H82.5359V328.37ZM86.0159 325.75H86.7759C86.9159 330.24 87.6059 333.77 89.1159 333.91C89.3959 333.93 89.5659 333.34 89.6659 332.17C89.8159 332.32 90.1459 332.51 90.2859 332.57C90.0759 334.31 89.6659 334.82 89.1459 334.8C86.8959 334.64 86.2359 330.86 86.0159 325.75ZM91.1559 329.71H99.9659V330.46H91.1559V329.71ZM91.8759 327.24H99.2759V327.99H91.8759V327.24ZM95.1359 325.61H95.9159V334.8H95.1359V325.61ZM94.9359 330.09L95.5859 330.37C94.6359 331.96 92.9759 333.46 91.4259 334.25C91.2959 334.06 91.0559 333.77 90.8759 333.61C92.4159 332.94 94.0759 331.51 94.9359 330.09ZM96.1159 330.09C96.9859 331.5 98.6659 332.94 100.206 333.61C100.026 333.76 99.7859 334.05 99.6559 334.25C98.1159 333.47 96.4559 331.94 95.4959 330.36L96.1159 330.09ZM103.696 326.64H109.826V327.31H103.696V326.64ZM103.366 328.43H110.096V329.1H103.366V328.43ZM105.376 332.66H108.136V333.24H105.376V332.66ZM105.136 325.61H105.846V328.98H105.136V325.61ZM107.616 325.61H108.346V328.98H107.616V325.61ZM105.116 331.16H105.616V333.84H105.116V331.16ZM107.866 331.16H108.356V333.7H107.866V331.16ZM109.066 329.95H109.776V333.99C109.776 334.37 109.706 334.57 109.426 334.68C109.156 334.78 108.686 334.78 107.976 334.78C107.946 334.6 107.856 334.34 107.776 334.14C108.286 334.16 108.756 334.16 108.896 334.16C109.026 334.15 109.066 334.11 109.066 333.99V329.95ZM103.776 329.95H109.366V330.62H104.456V334.8H103.776V329.95ZM101.396 326.25L101.846 325.71C102.456 325.98 103.206 326.43 103.576 326.78L103.116 327.38C102.756 327.02 102.016 326.54 101.396 326.25ZM100.906 329.02L101.316 328.46C101.946 328.67 102.746 329.06 103.156 329.38L102.736 330.02C102.346 329.69 101.556 329.27 100.906 329.02ZM101.176 334.21C101.646 333.44 102.316 332.13 102.806 330.99L103.396 331.44C102.946 332.5 102.356 333.74 101.846 334.67L101.176 334.21ZM106.366 328.88H107.076V330.43H107.016V333.04H106.426V330.43H106.366V328.88Z" fill="#676562"/>
<rect x="122.12" y="239" width="33.6556" height="17" fill="#FFDEB0"/>
<rect x="122.12" y="256" width="33.6556" height="17" fill="#FFCE8A"/>
<rect x="122.12" y="273" width="33.6556" height="17" fill="#FFB854"/>
<rect x="122.12" y="290" width="33.6556" height="30" fill="#FF9500"/>
<path d="M129.184 334V333.24H130.814V327.78H129.504V327.19C130.164 327.08 130.634 326.91 131.024 326.67H131.724V333.24H133.204V334H129.184ZM136.631 334.14C135.231 334.14 134.341 332.87 134.341 330.31C134.341 327.77 135.231 326.54 136.631 326.54C138.011 326.54 138.901 327.77 138.901 330.31C138.901 332.87 138.011 334.14 136.631 334.14ZM136.631 333.4C137.461 333.4 138.021 332.47 138.021 330.31C138.021 328.18 137.461 327.27 136.631 327.27C135.791 327.27 135.221 328.18 135.221 330.31C135.221 332.47 135.791 333.4 136.631 333.4ZM142.627 329.04L148.827 328.26L148.937 328.97L142.737 329.75L142.627 329.04ZM146.537 326.17L147.087 325.81C147.687 326.29 148.397 326.97 148.737 327.43L148.157 327.83C147.837 327.38 147.127 326.67 146.537 326.17ZM142.517 325.71L143.227 325.94C142.477 327.69 141.287 329.41 140.037 330.53C139.957 330.35 139.737 329.97 139.597 329.8C140.757 328.83 141.857 327.29 142.517 325.71ZM141.387 328.37L142.147 327.62V327.63V334.79H141.387V328.37ZM144.867 325.75H145.627C145.767 330.24 146.457 333.77 147.967 333.91C148.247 333.93 148.417 333.34 148.517 332.17C148.667 332.32 148.997 332.51 149.137 332.57C148.927 334.31 148.517 334.82 147.997 334.8C145.747 334.64 145.087 330.86 144.867 325.75Z" fill="#676562"/>
<path d="M177.5 334V333.47C179.8 331.46 180.85 329.99 180.85 328.74C180.85 327.9 180.42 327.28 179.51 327.28C178.91 327.28 178.39 327.65 177.98 328.13L177.45 327.62C178.05 326.97 178.69 326.54 179.62 326.54C180.93 326.54 181.75 327.39 181.75 328.7C181.75 330.17 180.6 331.66 178.87 333.29C179.26 333.25 179.7 333.22 180.07 333.22H182.1V334H177.5ZM185.386 334.14C183.986 334.14 183.096 332.87 183.096 330.31C183.096 327.77 183.986 326.54 185.386 326.54C186.766 326.54 187.656 327.77 187.656 330.31C187.656 332.87 186.766 334.14 185.386 334.14ZM185.386 333.4C186.216 333.4 186.776 332.47 186.776 330.31C186.776 328.18 186.216 327.27 185.386 327.27C184.546 327.27 183.976 328.18 183.976 330.31C183.976 332.47 184.546 333.4 185.386 333.4ZM191.383 329.04L197.583 328.26L197.693 328.97L191.493 329.75L191.383 329.04ZM195.293 326.17L195.843 325.81C196.443 326.29 197.153 326.97 197.493 327.43L196.913 327.83C196.593 327.38 195.883 326.67 195.293 326.17ZM191.273 325.71L191.983 325.94C191.233 327.69 190.043 329.41 188.793 330.53C188.713 330.35 188.493 329.97 188.353 329.8C189.513 328.83 190.613 327.29 191.273 325.71ZM190.143 328.37L190.903 327.62V327.63V334.79H190.143V328.37ZM193.623 325.75H194.383C194.523 330.24 195.213 333.77 196.723 333.91C197.003 333.93 197.173 333.34 197.273 332.17C197.423 332.32 197.753 332.51 197.893 332.57C197.683 334.31 197.273 334.82 196.753 334.8C194.503 334.64 193.843 330.86 193.623 325.75Z" fill="#676562"/>
<rect x="219.448" y="153" width="33.6556" height="24" fill="#FFDEB0"/>
<rect x="219.448" y="177" width="33.6556" height="32" fill="#FFCE8A"/>
<rect x="219.448" y="209" width="33.6556" height="67" fill="#FFB854"/>
<rect x="219.448" y="276" width="33.6556" height="44" fill="#FF9500"/>
<path d="M228.444 334.14C227.294 334.14 226.584 333.66 226.104 333.13L226.564 332.53C226.994 332.98 227.544 333.38 228.384 333.38C229.254 333.38 229.874 332.85 229.874 332.01C229.874 331.13 229.284 330.55 227.594 330.55V329.84C229.104 329.84 229.614 329.24 229.614 328.44C229.614 327.74 229.144 327.28 228.384 327.28C227.794 327.28 227.274 327.58 226.864 328L226.374 327.41C226.924 326.91 227.574 326.54 228.414 326.54C229.644 326.54 230.544 327.21 230.544 328.38C230.544 329.27 230.024 329.86 229.244 330.14V330.18C230.104 330.39 230.804 331.04 230.804 332.05C230.804 333.35 229.754 334.14 228.444 334.14ZM234.141 334.14C232.741 334.14 231.851 332.87 231.851 330.31C231.851 327.77 232.741 326.54 234.141 326.54C235.521 326.54 236.411 327.77 236.411 330.31C236.411 332.87 235.521 334.14 234.141 334.14ZM234.141 333.4C234.971 333.4 235.531 332.47 235.531 330.31C235.531 328.18 234.971 327.27 234.141 327.27C233.301 327.27 232.731 328.18 232.731 330.31C232.731 332.47 233.301 333.4 234.141 333.4ZM240.138 329.04L246.338 328.26L246.448 328.97L240.248 329.75L240.138 329.04ZM244.048 326.17L244.598 325.81C245.198 326.29 245.908 326.97 246.248 327.43L245.668 327.83C245.348 327.38 244.638 326.67 244.048 326.17ZM240.028 325.71L240.738 325.94C239.988 327.69 238.798 329.41 237.548 330.53C237.468 330.35 237.248 329.97 237.108 329.8C238.268 328.83 239.368 327.29 240.028 325.71ZM238.898 328.37L239.658 327.62V327.63V334.79H238.898V328.37ZM242.378 325.75H243.138C243.278 330.24 243.968 333.77 245.478 333.91C245.758 333.93 245.928 333.34 246.028 332.17C246.178 332.32 246.508 332.51 246.648 332.57C246.438 334.31 246.028 334.82 245.508 334.8C243.258 334.64 242.598 330.86 242.378 325.75Z" fill="#676562"/>
<rect x="267.657" y="132" width="34.5652" height="47" fill="#FFDEB0"/>
<rect x="267.657" y="179" width="34.5652" height="47" fill="#FFCE8A"/>
<rect x="267.657" y="226" width="34.5652" height="47" fill="#FFB854"/>
<rect x="267.657" y="273" width="34.5652" height="47" fill="#FF9500"/>
<path d="M277.959 334V329.01C277.959 328.64 277.989 328.05 278.019 327.67H277.969C277.789 328.03 277.589 328.4 277.389 328.76L275.719 331.26H279.799V331.98H274.759V331.38L277.809 326.67H278.819V334H277.959ZM282.896 334.14C281.496 334.14 280.606 332.87 280.606 330.31C280.606 327.77 281.496 326.54 282.896 326.54C284.276 326.54 285.166 327.77 285.166 330.31C285.166 332.87 284.276 334.14 282.896 334.14ZM282.896 333.4C283.726 333.4 284.286 332.47 284.286 330.31C284.286 328.18 283.726 327.27 282.896 327.27C282.056 327.27 281.486 328.18 281.486 330.31C281.486 332.47 282.056 333.4 282.896 333.4ZM288.893 329.04L295.093 328.26L295.203 328.97L289.003 329.75L288.893 329.04ZM292.803 326.17L293.353 325.81C293.953 326.29 294.663 326.97 295.003 327.43L294.423 327.83C294.103 327.38 293.393 326.67 292.803 326.17ZM288.783 325.71L289.493 325.94C288.743 327.69 287.553 329.41 286.303 330.53C286.223 330.35 286.003 329.97 285.863 329.8C287.023 328.83 288.123 327.29 288.783 325.71ZM287.653 328.37L288.413 327.62V327.63V334.79H287.653V328.37ZM291.133 325.75H291.893C292.033 330.24 292.723 333.77 294.233 333.91C294.513 333.93 294.683 333.34 294.783 332.17C294.933 332.32 295.263 332.51 295.403 332.57C295.193 334.31 294.783 334.82 294.263 334.8C292.013 334.64 291.353 330.86 291.133 325.75Z" fill="#676562"/>
<rect x="316.776" y="170" width="34.5652" height="11" fill="#FFDEB0"/>
<rect x="316.776" y="181" width="34.5652" height="8" fill="#FFCE8A"/>
<rect x="316.776" y="189" width="34.5652" height="73" fill="#FFB854"/>
<rect x="316.776" y="262" width="34.5652" height="58" fill="#FF9500"/>
<path d="M325.934 334.14C324.794 334.14 324.094 333.66 323.594 333.16L324.054 332.56C324.464 332.99 325.004 333.38 325.844 333.38C326.714 333.38 327.404 332.71 327.404 331.65C327.404 330.6 326.804 329.97 325.894 329.97C325.404 329.97 325.094 330.13 324.674 330.41L324.184 330.1L324.414 326.67H327.984V327.45H325.214L325.024 329.57C325.354 329.39 325.684 329.28 326.124 329.28C327.344 329.28 328.334 330 328.334 331.62C328.334 333.22 327.164 334.14 325.934 334.14ZM331.651 334.14C330.251 334.14 329.361 332.87 329.361 330.31C329.361 327.77 330.251 326.54 331.651 326.54C333.031 326.54 333.921 327.77 333.921 330.31C333.921 332.87 333.031 334.14 331.651 334.14ZM331.651 333.4C332.481 333.4 333.041 332.47 333.041 330.31C333.041 328.18 332.481 327.27 331.651 327.27C330.811 327.27 330.241 328.18 330.241 330.31C330.241 332.47 330.811 333.4 331.651 333.4ZM337.648 329.04L343.848 328.26L343.958 328.97L337.758 329.75L337.648 329.04ZM341.558 326.17L342.108 325.81C342.708 326.29 343.418 326.97 343.758 327.43L343.178 327.83C342.858 327.38 342.148 326.67 341.558 326.17ZM337.538 325.71L338.248 325.94C337.498 327.69 336.308 329.41 335.058 330.53C334.978 330.35 334.758 329.97 334.618 329.8C335.778 328.83 336.878 327.29 337.538 325.71ZM336.408 328.37L337.168 327.62V327.63V334.79H336.408V328.37ZM339.888 325.75H340.648C340.788 330.24 341.478 333.77 342.988 333.91C343.268 333.93 343.438 333.34 343.538 332.17C343.688 332.32 344.018 332.51 344.158 332.57C343.948 334.31 343.538 334.82 343.018 334.8C340.768 334.64 340.108 330.86 339.888 325.75Z" fill="#676562"/>
<rect x="365.896" y="214" width="33.6556" height="14" fill="#FFDEB0"/>
<rect x="365.896" y="228" width="33.6556" height="11" fill="#FFCE8A"/>
<rect x="365.896" y="239" width="33.6556" height="40.5" fill="#FFB854"/>
<rect x="365.896" y="279.5" width="33.6556" height="40.5" fill="#FF9500"/>
<path d="M375.089 334.14C373.679 334.14 372.629 332.93 372.629 330.51C372.629 327.64 373.919 326.54 375.339 326.54C376.099 326.54 376.659 326.86 377.059 327.29L376.549 327.85C376.269 327.51 375.819 327.3 375.379 327.3C374.349 327.3 373.489 328.11 373.489 330.51C373.489 332.39 374.059 333.42 375.089 333.42C375.789 333.42 376.329 332.75 376.329 331.76C376.329 330.76 375.889 330.13 375.009 330.13C374.539 330.13 373.949 330.41 373.459 331.14L373.429 330.41C373.879 329.82 374.559 329.46 375.149 329.46C376.389 329.46 377.189 330.22 377.189 331.76C377.189 333.18 376.219 334.14 375.089 334.14ZM380.406 334.14C379.006 334.14 378.116 332.87 378.116 330.31C378.116 327.77 379.006 326.54 380.406 326.54C381.786 326.54 382.676 327.77 382.676 330.31C382.676 332.87 381.786 334.14 380.406 334.14ZM380.406 333.4C381.236 333.4 381.796 332.47 381.796 330.31C381.796 328.18 381.236 327.27 380.406 327.27C379.566 327.27 378.996 328.18 378.996 330.31C378.996 332.47 379.566 333.4 380.406 333.4ZM386.403 329.04L392.603 328.26L392.713 328.97L386.513 329.75L386.403 329.04ZM390.313 326.17L390.863 325.81C391.463 326.29 392.173 326.97 392.513 327.43L391.933 327.83C391.613 327.38 390.903 326.67 390.313 326.17ZM386.293 325.71L387.003 325.94C386.253 327.69 385.063 329.41 383.813 330.53C383.733 330.35 383.513 329.97 383.373 329.8C384.533 328.83 385.633 327.29 386.293 325.71ZM385.163 328.37L385.923 327.62V327.63V334.79H385.163V328.37ZM388.643 325.75H389.403C389.543 330.24 390.233 333.77 391.743 333.91C392.023 333.93 392.193 333.34 392.293 332.17C392.443 332.32 392.773 332.51 392.913 332.57C392.703 334.31 392.293 334.82 391.773 334.8C389.523 334.64 388.863 330.86 388.643 325.75Z" fill="#676562"/>
<rect x="414.104" y="290" width="34.5652" height="18" fill="#FFB854"/>
<rect x="414.104" y="308" width="34.5652" height="12" fill="#FF9500"/>
<path d="M422.804 334C422.934 331.23 423.434 329.45 424.874 327.45H421.324V326.67H425.904V327.22C424.184 329.43 423.874 331.14 423.754 334H422.804ZM429.161 334.14C427.761 334.14 426.871 332.87 426.871 330.31C426.871 327.77 427.761 326.54 429.161 326.54C430.541 326.54 431.431 327.77 431.431 330.31C431.431 332.87 430.541 334.14 429.161 334.14ZM429.161 333.4C429.991 333.4 430.551 332.47 430.551 330.31C430.551 328.18 429.991 327.27 429.161 327.27C428.321 327.27 427.751 328.18 427.751 330.31C427.751 332.47 428.321 333.4 429.161 333.4ZM435.158 329.04L441.358 328.26L441.468 328.97L435.268 329.75L435.158 329.04ZM439.068 326.17L439.618 325.81C440.218 326.29 440.928 326.97 441.268 327.43L440.688 327.83C440.368 327.38 439.658 326.67 439.068 326.17ZM435.048 325.71L435.758 325.94C435.008 327.69 433.818 329.41 432.568 330.53C432.488 330.35 432.268 329.97 432.128 329.8C433.288 328.83 434.388 327.29 435.048 325.71ZM433.918 328.37L434.678 327.62V327.63V334.79H433.918V328.37ZM437.398 325.75H438.158C438.298 330.24 438.988 333.77 440.498 333.91C440.778 333.93 440.948 333.34 441.048 332.17C441.198 332.32 441.528 332.51 441.668 332.57C441.458 334.31 441.048 334.82 440.528 334.8C438.278 334.64 437.618 330.86 437.398 325.75Z" fill="#676562"/>
<rect x="463.225" y="295" width="33.6556" height="9" fill="#FFB854"/>
<rect x="463.225" y="304" width="33.6556" height="16" fill="#FF9500"/>
<path d="M472.38 334.14C471.03 334.14 470.04 333.32 470.04 332.19C470.04 331.2 470.72 330.52 471.39 330.16V330.12C470.85 329.75 470.39 329.19 470.39 328.42C470.39 327.31 471.26 326.57 472.41 326.57C473.66 326.57 474.42 327.37 474.42 328.49C474.42 329.27 473.88 329.92 473.44 330.26V330.31C474.08 330.68 474.68 331.24 474.68 332.24C474.68 333.31 473.75 334.14 472.38 334.14ZM472.88 330.03C473.38 329.59 473.64 329.09 473.64 328.54C473.64 327.82 473.18 327.24 472.39 327.24C471.72 327.24 471.23 327.72 471.23 328.42C471.23 329.3 472.02 329.69 472.88 330.03ZM472.4 333.45C473.24 333.45 473.8 332.94 473.8 332.21C473.8 331.23 472.9 330.86 471.87 330.44C471.27 330.82 470.86 331.4 470.86 332.1C470.86 332.88 471.52 333.45 472.4 333.45ZM477.917 334.14C476.517 334.14 475.627 332.87 475.627 330.31C475.627 327.77 476.517 326.54 477.917 326.54C479.297 326.54 480.187 327.77 480.187 330.31C480.187 332.87 479.297 334.14 477.917 334.14ZM477.917 333.4C478.747 333.4 479.307 332.47 479.307 330.31C479.307 328.18 478.747 327.27 477.917 327.27C477.077 327.27 476.507 328.18 476.507 330.31C476.507 332.47 477.077 333.4 477.917 333.4ZM483.914 329.04L490.114 328.26L490.224 328.97L484.024 329.75L483.914 329.04ZM487.824 326.17L488.374 325.81C488.974 326.29 489.684 326.97 490.024 327.43L489.444 327.83C489.124 327.38 488.414 326.67 487.824 326.17ZM483.804 325.71L484.514 325.94C483.764 327.69 482.574 329.41 481.324 330.53C481.244 330.35 481.024 329.97 480.884 329.8C482.044 328.83 483.144 327.29 483.804 325.71ZM482.674 328.37L483.434 327.62V327.63V334.79H482.674V328.37ZM486.154 325.75H486.914C487.054 330.24 487.744 333.77 489.254 333.91C489.534 333.93 489.704 333.34 489.804 332.17C489.954 332.32 490.284 332.51 490.424 332.57C490.214 334.31 489.804 334.82 489.284 334.8C487.034 334.64 486.374 330.86 486.154 325.75Z" fill="#676562"/>
<rect x="511.434" y="308" width="34.5652" height="6" fill="#FFB854"/>
<rect x="511.434" y="314" width="34.5652" height="6" fill="#FF9500"/>
<path d="M510.588 334.14C509.788 334.14 509.228 333.82 508.818 333.39L509.328 332.81C509.638 333.17 510.088 333.38 510.558 333.38C511.538 333.38 512.388 332.53 512.388 330.02C512.388 328.22 511.818 327.25 510.788 327.25C510.088 327.25 509.548 327.91 509.548 328.92C509.548 329.9 509.988 330.55 510.858 330.55C511.348 330.55 511.918 330.26 512.398 329.53L512.448 330.26C511.988 330.84 511.338 331.22 510.708 331.22C509.478 331.22 508.688 330.44 508.688 328.92C508.688 327.5 509.648 326.54 510.788 326.54C512.198 326.54 513.248 327.69 513.248 330.02C513.248 333 511.968 334.14 510.588 334.14ZM516.575 334.14C515.175 334.14 514.285 332.87 514.285 330.31C514.285 327.77 515.175 326.54 516.575 326.54C517.955 326.54 518.845 327.77 518.845 330.31C518.845 332.87 517.955 334.14 516.575 334.14ZM516.575 333.4C517.405 333.4 517.965 332.47 517.965 330.31C517.965 328.18 517.405 327.27 516.575 327.27C515.735 327.27 515.165 328.18 515.165 330.31C515.165 332.47 515.735 333.4 516.575 333.4ZM522.572 329.04L528.772 328.26L528.882 328.97L522.682 329.75L522.572 329.04ZM526.482 326.17L527.032 325.81C527.632 326.29 528.342 326.97 528.682 327.43L528.102 327.83C527.782 327.38 527.072 326.67 526.482 326.17ZM522.462 325.71L523.172 325.94C522.422 327.69 521.232 329.41 519.982 330.53C519.902 330.35 519.682 329.97 519.542 329.8C520.702 328.83 521.802 327.29 522.462 325.71ZM521.332 328.37L522.092 327.62V327.63V334.79H521.332V328.37ZM524.812 325.75H525.572C525.712 330.24 526.402 333.77 527.912 333.91C528.192 333.93 528.362 333.34 528.462 332.17C528.612 332.32 528.942 332.51 529.082 332.57C528.872 334.31 528.462 334.82 527.942 334.8C525.692 334.64 525.032 330.86 524.812 325.75ZM532.982 327.18L533.652 326.85C534.322 327.58 534.962 328.57 535.252 329.25L534.532 329.64C534.272 328.95 533.622 327.92 532.982 327.18ZM529.692 332.94C530.712 332.54 532.312 331.86 533.812 331.2L533.982 331.93C532.592 332.57 531.072 333.24 529.962 333.72L529.692 332.94ZM535.692 331.62L536.272 331.13C537.222 332.07 538.462 333.37 539.052 334.19L538.412 334.78C537.852 333.95 536.652 332.6 535.692 331.62ZM537.082 326.12L537.892 326.2C537.382 330.82 536.212 333.37 532.712 334.83C532.602 334.67 532.302 334.34 532.112 334.18C535.572 332.92 536.632 330.47 537.082 326.12ZM530.912 326.15L531.682 326.12L531.852 332.73L531.082 332.76L530.912 326.15ZM544.042 328.84H548.152V329.59H544.042V328.84ZM539.852 333.58H548.832V334.33H539.852V333.58ZM543.612 325.75H544.402V333.98H543.612V325.75Z" fill="#676562"/>
<rect x="171" y="176" width="34.5652" height="31.5" fill="#FFDEB0"/>
<rect x="171" y="207.5" width="34.5652" height="31.5" fill="#FFCE8A"/>
<rect x="171" y="239" width="34.5652" height="43" fill="#FFB854"/>
<rect x="171" y="282" width="34.5652" height="38" fill="#FF9500"/>
<rect x="63" y="358" width="9" height="9" fill="#FF9500"/>
<path d="M78.27 360.45V361.53H83.7V360.45H78.27ZM78.27 358.78V359.84H83.7V358.78H78.27ZM77.52 358.14H84.47V362.18H77.52V358.14ZM80.58 358.43H81.34V361.87H80.58V358.43ZM76.71 363.15H84.36V363.84H76.71V363.15ZM84.05 363.15H84.81C84.81 363.15 84.8 363.37 84.78 363.48C84.6 365.38 84.4 366.17 84.08 366.48C83.86 366.69 83.64 366.74 83.28 366.76C82.97 366.78 82.35 366.77 81.71 366.74C81.69 366.53 81.6 366.24 81.47 366.05C82.12 366.1 82.78 366.11 83.01 366.11C83.24 366.11 83.36 366.1 83.45 366.01C83.71 365.8 83.89 365.04 84.04 363.26L84.05 363.15ZM80.44 362.04H81.22C80.94 364.32 80.26 366.04 76.83 366.8C76.76 366.61 76.57 366.31 76.43 366.16C79.67 365.49 80.19 364 80.44 362.04ZM87.71 357.6H88.47V366.79H87.71V357.6ZM86.79 359.5L87.36 359.59C87.31 360.4 87.13 361.56 86.86 362.28L86.27 362.08C86.54 361.41 86.72 360.31 86.79 359.5ZM88.54 359.44L89.06 359.21C89.37 359.75 89.68 360.46 89.79 360.89L89.23 361.17C89.12 360.73 88.82 360 88.54 359.44ZM90.58 358.07L91.31 358.19C91.05 359.65 90.61 361.07 90.05 362.01C89.9 361.9 89.56 361.74 89.37 361.66C89.96 360.78 90.36 359.42 90.58 358.07ZM90.59 359.72H95.24V360.44H90.36L90.59 359.72ZM92.21 357.64H92.96V366.14H92.21V357.64ZM90.08 362.52H95.02V363.23H90.08V362.52ZM89.33 365.73H95.48V366.45H89.33V365.73Z" fill="#676562"/>
<rect x="107" y="358" width="9" height="9" fill="#FFB854"/>
<path d="M120.5 360H129.53V360.75H120.5V360ZM124.24 357.61L125.05 357.75C124.28 359.79 123.13 362.53 122.35 364.17L121.61 363.9C122.39 362.31 123.53 359.57 124.24 357.61ZM127.19 360.33L127.99 360.53C127.24 364.39 125.51 366.16 120.98 366.83C120.9 366.6 120.73 366.3 120.58 366.11C124.94 365.53 126.5 363.92 127.19 360.33ZM122.12 363.52L122.61 362.94C124.9 363.7 127.81 365.05 129.29 366.16L128.72 366.85C127.33 365.75 124.46 364.33 122.12 363.52ZM131.71 357.6H132.47V366.79H131.71V357.6ZM130.79 359.5L131.36 359.59C131.31 360.4 131.13 361.56 130.86 362.28L130.27 362.08C130.54 361.41 130.72 360.31 130.79 359.5ZM132.54 359.44L133.06 359.21C133.37 359.75 133.68 360.46 133.79 360.89L133.23 361.17C133.12 360.73 132.82 360 132.54 359.44ZM134.58 358.07L135.31 358.19C135.05 359.65 134.61 361.07 134.05 362.01C133.9 361.9 133.56 361.74 133.37 361.66C133.96 360.78 134.36 359.42 134.58 358.07ZM134.59 359.72H139.24V360.44H134.36L134.59 359.72ZM136.21 357.64H136.96V366.14H136.21V357.64ZM134.08 362.52H139.02V363.23H134.08V362.52ZM133.33 365.73H139.48V366.45H133.33V365.73Z" fill="#676562"/>
<rect x="151" y="358" width="9" height="9" fill="#FFCE8A"/>
<path d="M166.61 358.54C166.86 358.56 167.1 358.57 167.41 358.57C167.85 358.57 169.91 358.48 170.48 358.42C170.72 358.4 170.91 358.36 171.03 358.32L171.53 358.89C171.4 358.98 171.14 359.15 171 359.27C170.25 359.88 168.81 361.09 168.01 361.73C169.53 361.56 171.33 361.43 172.76 361.43L172.77 362.17C171.79 362.12 170.83 362.13 170.23 362.22C169.26 362.36 168.3 363.18 168.3 364.12C168.3 365.13 169.11 365.47 170.03 365.6C170.62 365.67 171.1 365.65 171.46 365.62L171.3 366.44C168.85 366.54 167.52 365.78 167.52 364.24C167.52 363.39 168.17 362.66 168.69 362.35C167.62 362.44 166.28 362.6 165.08 362.8L165.01 362.05C165.55 361.99 166.23 361.91 166.74 361.85C167.83 361.09 169.41 359.7 170.05 359.14C169.6 359.17 167.85 359.25 167.42 359.29C167.16 359.31 166.87 359.34 166.65 359.36L166.61 358.54ZM179.63 359.18C179.5 360.22 179.3 361.39 178.99 362.46C178.38 364.51 177.58 365.57 176.66 365.57C175.76 365.57 174.87 364.55 174.87 362.89C174.87 360.72 176.8 358.83 179.25 358.83C181.59 358.83 183.08 360.48 183.08 362.51C183.08 364.6 181.7 366 179.32 366.31L178.86 365.57C179.18 365.54 179.48 365.5 179.72 365.45C181 365.16 182.26 364.2 182.26 362.47C182.26 360.87 181.15 359.55 179.23 359.55C177.03 359.55 175.66 361.36 175.66 362.83C175.66 364.09 176.23 364.65 176.68 364.65C177.15 364.65 177.69 363.97 178.2 362.28C178.49 361.33 178.7 360.2 178.8 359.16L179.63 359.18ZM190.19 357.62H190.9V364.57H190.19V357.62ZM186.71 361.74L192.72 359.41L193.01 360.06L186.99 362.4L186.71 361.74ZM187.97 358.6H188.71V365.29C188.71 365.86 188.85 365.99 189.56 365.99C189.9 365.99 191.69 365.99 192.13 365.99C192.74 365.99 192.85 365.71 192.93 364.53C193.11 364.66 193.41 364.79 193.63 364.84C193.5 366.22 193.26 366.67 192.15 366.67C191.86 366.67 189.8 366.67 189.53 366.67C188.32 366.67 187.97 366.39 187.97 365.28V358.6ZM192.47 359.58H192.38L192.56 359.43L192.69 359.31L193.21 359.53L193.18 359.65C193.17 361.47 193.15 362.91 193.05 363.34C192.97 363.8 192.76 363.99 192.45 364.07C192.18 364.14 191.74 364.15 191.44 364.14C191.42 363.93 191.34 363.62 191.25 363.45C191.53 363.46 191.89 363.46 192.02 363.46C192.19 363.46 192.3 363.42 192.37 363.16C192.45 362.84 192.47 361.53 192.47 359.58ZM186.66 357.64L187.35 357.86C186.7 359.54 185.67 361.24 184.6 362.36C184.52 362.19 184.31 361.8 184.18 361.63C185.17 360.66 186.1 359.16 186.66 357.64ZM185.6 360.22L186.32 359.49L186.33 359.5V366.79H185.6V360.22Z" fill="#676562"/>
<rect x="205" y="358" width="9" height="9" fill="#FFDEB0"/>
<path d="M221.74 361V363.3H224.17V361H221.74ZM221.03 360.33H224.92V363.96H221.03V360.33ZM218.82 358.01H227.18V366.79H226.38V358.77H219.59V366.79H218.82V358.01ZM219.25 365.55H226.84V366.26H219.25V365.55ZM230.96 362.13H235.1V362.78H230.96V362.13ZM230.53 365.82H235.52V366.48H230.53V365.82ZM232.98 360.58C232.1 361.64 230.44 362.82 228.73 363.54C228.64 363.37 228.46 363.11 228.31 362.95C230.07 362.26 231.74 361.03 232.57 359.92H233.31C234.4 361.18 236.16 362.25 237.73 362.78C237.55 362.96 237.38 363.22 237.27 363.42C235.74 362.82 233.97 361.69 232.98 360.58ZM230.12 363.64H235.93V366.78H235.19V364.3H230.83V366.81H230.12V363.64ZM229.66 358.47H232.78V359.11H229.66V358.47ZM233.44 358.47H237.47V359.11H233.44V358.47ZM229.87 357.45L230.59 357.64C230.19 358.72 229.57 359.8 228.92 360.49C228.78 360.38 228.47 360.17 228.29 360.08C228.95 359.44 229.53 358.44 229.87 357.45ZM233.77 357.45L234.5 357.63C234.14 358.62 233.52 359.55 232.86 360.15C232.73 360.03 232.41 359.8 232.23 359.71C232.89 359.17 233.46 358.33 233.77 357.45ZM230.18 358.95L230.81 358.76C231.11 359.22 231.43 359.83 231.56 360.23L230.89 360.46C230.77 360.06 230.47 359.42 230.18 358.95ZM234.38 358.95L235.04 358.74C235.41 359.17 235.82 359.78 235.98 360.19L235.28 360.45C235.13 360.04 234.74 359.41 234.38 358.95ZM238.96 359.7C239.33 359.74 239.76 359.76 240.19 359.76C241.27 359.76 242.53 359.63 243.68 359.25L243.7 359.99C242.72 360.26 241.41 360.48 240.19 360.47C239.82 360.47 239.39 360.46 239.02 360.45L238.96 359.7ZM242.51 358.07C242.38 358.56 242.17 359.5 241.93 360.21C241.45 361.65 240.53 363.47 239.7 364.59L238.93 364.19C239.82 363.15 240.75 361.37 241.16 360.19C241.38 359.56 241.6 358.68 241.63 357.98L242.51 358.07ZM244.87 361.16C244.84 361.57 244.84 361.87 244.85 362.23C244.87 362.88 244.96 364.4 244.96 365.06C244.96 365.86 244.45 366.51 243.21 366.51C242.11 366.51 241.22 366.07 241.22 365.07C241.22 364.15 242.09 363.57 243.21 363.57C244.89 363.57 246.18 364.41 247 365.12L246.58 365.8C245.81 365.1 244.66 364.21 243.19 364.21C242.45 364.21 241.95 364.55 241.95 365.01C241.95 365.47 242.34 365.79 243.12 365.79C243.95 365.79 244.23 365.35 244.23 364.81C244.23 364.05 244.12 362.26 244.08 361.16H244.87ZM246.87 361.42C246.33 360.96 245.24 360.35 244.58 360.04L244.98 359.44C245.71 359.75 246.84 360.4 247.32 360.76L246.87 361.42ZM251.4 358.21C251.35 358.54 251.32 358.89 251.3 359.22C251.26 360.35 251.18 362.72 251.18 364.21C251.18 365.31 251.87 365.69 252.82 365.69C254.65 365.69 255.69 364.67 256.41 363.63L256.97 364.31C256.29 365.26 254.99 366.51 252.8 366.51C251.36 366.51 250.37 365.92 250.37 364.28C250.37 362.8 250.47 360.27 250.47 359.22C250.47 358.85 250.44 358.5 250.38 358.21H251.4Z" fill="#676562"/>
<g filter="url(#filter1_d_1_1628)">
<rect x="348" y="210" width="70" height="27" rx="4" fill="white"/>
<rect x="356" y="219" width="9" height="9" rx="2" fill="#FFB855"/>
<path d="M370.275 229V227.575H372.705V219.895H370.71V218.8C371.76 218.62 372.48 218.35 373.125 217.96H374.43V227.575H376.59V229H370.275ZM381.2 229.21C379.925 229.21 379.01 228.685 378.38 228.025L379.31 226.96C379.76 227.455 380.435 227.785 381.125 227.785C382.52 227.785 383.705 226.615 383.705 223.105C383.705 220.345 382.85 219.085 381.5 219.085C380.54 219.085 379.79 219.94 379.79 221.395C379.79 222.79 380.435 223.6 381.59 223.6C382.28 223.6 383.06 223.21 383.705 222.205L383.795 223.465C383.15 224.32 382.16 224.86 381.275 224.86C379.43 224.86 378.185 223.705 378.185 221.395C378.185 219.19 379.685 217.765 381.485 217.765C383.6 217.765 385.31 219.46 385.31 223.105C385.31 227.455 383.33 229.21 381.2 229.21ZM390.129 229.21C388.389 229.21 387.294 228.505 386.499 227.725L387.339 226.6C387.954 227.23 388.764 227.785 389.919 227.785C391.164 227.785 392.094 226.9 392.094 225.43C392.094 223.975 391.254 223.135 389.994 223.135C389.304 223.135 388.884 223.33 388.239 223.75L387.384 223.21L387.714 217.96H393.324V219.43H389.229L388.974 222.25C389.439 222.01 389.889 221.875 390.489 221.875C392.334 221.875 393.849 222.955 393.849 225.385C393.849 227.815 392.049 229.21 390.129 229.21ZM401.174 216.76H402.779C402.644 219.19 402.434 226.6 396.254 230.14C396.014 229.78 395.549 229.345 395.084 229.015C401.159 225.805 401.069 218.74 401.174 216.76ZM402.719 217.105C402.764 218.335 403.154 226.09 409.319 228.94C408.884 229.27 408.449 229.75 408.224 230.14C401.834 227.02 401.459 218.68 401.354 217.24L402.719 217.105Z" fill="#291C0A"/>
<path d="M383.338 241.44C383.147 241.615 382.853 241.615 382.662 241.44L376.586 235.868C376.25 235.56 376.468 235 376.924 235L389.076 235C389.532 235 389.75 235.56 389.414 235.868L383.338 241.44Z" fill="white"/>
</g>
</g>
</g>
<defs>
<filter id="filter0_d_1_1628" x="0" y="0" width="608" height="415" filterUnits="userSpaceOnUse" color-interpolation-filters="sRGB">
<feFlood flood-opacity="0" result="BackgroundImageFix"/>
<feColorMatrix in="SourceAlpha" type="matrix" values="0 0 0 0 0 0 0 0 0 0 0 0 0 0 0 0 0 0 127 0" result="hardAlpha"/>
<feOffset dy="4"/>
<feGaussianBlur stdDeviation="10"/>
<feComposite in2="hardAlpha" operator="out"/>
<feColorMatrix type="matrix" values="0 0 0 0 0.92946 0 0 0 0 0.91606 0 0 0 0 0.893727 0 0 0 0.5 0"/>
<feBlend mode="normal" in2="BackgroundImageFix" result="effect1_dropShadow_1_1628"/>
<feBlend mode="normal" in="SourceGraphic" in2="effect1_dropShadow_1_1628" result="shape"/>
</filter>
<filter id="filter1_d_1_1628" x="338" y="200" width="90" height="51.5715" filterUnits="userSpaceOnUse" color-interpolation-filters="sRGB">
<feFlood flood-opacity="0" result="BackgroundImageFix"/>
<feColorMatrix in="SourceAlpha" type="matrix" values="0 0 0 0 0 0 0 0 0 0 0 0 0 0 0 0 0 0 127 0" result="hardAlpha"/>
<feOffset/>
<feGaussianBlur stdDeviation="5"/>
<feComposite in2="hardAlpha" operator="out"/>
<feColorMatrix type="matrix" values="0 0 0 0 0 0 0 0 0 0 0 0 0 0 0 0 0 0 0.15 0"/>
<feBlend mode="normal" in2="BackgroundImageFix" result="effect1_dropShadow_1_1628"/>
<feBlend mode="normal" in="SourceGraphic" in2="effect1_dropShadow_1_1628" result="shape"/>
</filter>
<clipPath id="clip0_1_1628">
<rect x="20" y="16" width="568" height="375" rx="8" fill="white"/>
</clipPath>
</defs>
</svg>
