<svg width="18" height="18" viewBox="0 0 18 18" fill="none" xmlns="http://www.w3.org/2000/svg">
<path d="M6.5 1.5H2.33333C1.8731 1.5 1.5 1.8731 1.5 2.33333V8.16667C1.5 8.6269 1.8731 9 2.33333 9H6.5C6.96024 9 7.33333 8.6269 7.33333 8.16667V2.33333C7.33333 1.8731 6.96024 1.5 6.5 1.5Z" stroke="#676562" stroke-width="1.66667" stroke-linecap="round" stroke-linejoin="round"/>
<path d="M15.667 1.5H11.5003C11.0401 1.5 10.667 1.8731 10.667 2.33333V4.83333C10.667 5.29357 11.0401 5.66667 11.5003 5.66667H15.667C16.1272 5.66667 16.5003 5.29357 16.5003 4.83333V2.33333C16.5003 1.8731 16.1272 1.5 15.667 1.5Z" stroke="#676562" stroke-width="1.66667" stroke-linecap="round" stroke-linejoin="round"/>
<path d="M15.667 9H11.5003C11.0401 9 10.667 9.3731 10.667 9.83333V15.6667C10.667 16.1269 11.0401 16.5 11.5003 16.5H15.667C16.1272 16.5 16.5003 16.1269 16.5003 15.6667V9.83333C16.5003 9.3731 16.1272 9 15.667 9Z" stroke="#676562" stroke-width="1.66667" stroke-linecap="round" stroke-linejoin="round"/>
<path d="M6.5 12.3335H2.33333C1.8731 12.3335 1.5 12.7066 1.5 13.1668V15.6668C1.5 16.1271 1.8731 16.5002 2.33333 16.5002H6.5C6.96024 16.5002 7.33333 16.1271 7.33333 15.6668V13.1668C7.33333 12.7066 6.96024 12.3335 6.5 12.3335Z" stroke="#676562" stroke-width="1.66667" stroke-linecap="round" stroke-linejoin="round"/>
</svg>
