<svg width="48" height="44" viewBox="0 0 48 44" fill="none" xmlns="http://www.w3.org/2000/svg">
<path d="M24 32C29.5228 32 34 27.5228 34 22C34 16.4772 29.5228 12 24 12C18.4772 12 14 16.4772 14 22C14 27.5228 18.4772 32 24 32Z" stroke="#676562" stroke-width="2" stroke-linecap="round" stroke-linejoin="round"/>
<path d="M24 23C25.6569 23 27 21.6569 27 20C27 18.3431 25.6569 17 24 17C22.3431 17 21 18.3431 21 20C21 21.6569 22.3431 23 24 23Z" stroke="#676562" stroke-width="2" stroke-linecap="round" stroke-linejoin="round"/>
<path d="M19 30.662V29C19 28.4696 19.2107 27.9609 19.5858 27.5858C19.9609 27.2107 20.4696 27 21 27H27C27.5304 27 28.0391 27.2107 28.4142 27.5858C28.7893 27.9609 29 28.4696 29 29V30.662" stroke="#676562" stroke-width="2" stroke-linecap="round" stroke-linejoin="round"/>
</svg>
