<svg width="60" height="19" viewBox="0 0 60 19" fill="none" xmlns="http://www.w3.org/2000/svg">
<rect width="59" height="19" rx="3.8" fill="#E7F7EB"/>
<g clip-path="url(#clip0_1691_2992)">
<path d="M6.63379 7.69991L9.00044 5.33325L11.3671 7.69991" stroke="#13AF35" stroke-linecap="round" stroke-linejoin="round"/>
<path d="M9 5.33325V13.6666" stroke="#13AF35" stroke-linecap="round" stroke-linejoin="round"/>
</g>
<path d="M17.471 14.682C15.976 14.682 15.001 14.084 14.351 13.356L15.092 12.394C15.651 12.966 16.353 13.447 17.354 13.447C18.42 13.447 19.161 12.849 19.161 11.861C19.161 10.795 18.485 10.119 16.34 10.119V9.001C18.212 9.001 18.836 8.299 18.836 7.337C18.836 6.492 18.29 5.959 17.367 5.959C16.639 5.959 16.015 6.31 15.469 6.856L14.676 5.907C15.443 5.231 16.327 4.763 17.432 4.763C19.148 4.763 20.357 5.647 20.357 7.22C20.357 8.325 19.72 9.092 18.706 9.469V9.534C19.811 9.82 20.682 10.639 20.682 11.939C20.682 13.668 19.239 14.682 17.471 14.682ZM22.5191 14.5V13.265H24.6251V6.609H22.8961V5.66C23.8061 5.504 24.4301 5.27 24.9891 4.932H26.1201V13.265H27.9921V14.5H22.5191ZM32.8191 14.682C30.9991 14.682 29.5171 13.148 29.5171 9.898C29.5171 6.232 31.2331 4.763 33.1311 4.763C34.1971 4.763 34.9771 5.205 35.5231 5.79L34.7041 6.7C34.3531 6.284 33.7681 5.985 33.2091 5.985C31.9351 5.985 30.9081 6.973 30.9081 9.898C30.9081 12.368 31.6361 13.525 32.8061 13.525C33.6381 13.525 34.2881 12.771 34.2881 11.536C34.2881 10.301 33.7291 9.612 32.7151 9.612C32.1431 9.612 31.4541 9.95 30.8821 10.821L30.8171 9.729C31.3761 8.975 32.2601 8.533 32.9751 8.533C34.5871 8.533 35.6791 9.508 35.6791 11.536C35.6791 13.434 34.3661 14.682 32.8191 14.682ZM38.1792 14.682C37.6072 14.682 37.1782 14.24 37.1782 13.629C37.1782 13.005 37.6072 12.576 38.1792 12.576C38.7382 12.576 39.1802 13.005 39.1802 13.629C39.1802 14.24 38.7382 14.682 38.1792 14.682ZM44.1053 14.682C42.2853 14.682 40.8033 13.148 40.8033 9.898C40.8033 6.232 42.5193 4.763 44.4173 4.763C45.4833 4.763 46.2633 5.205 46.8093 5.79L45.9903 6.7C45.6393 6.284 45.0543 5.985 44.4953 5.985C43.2213 5.985 42.1943 6.973 42.1943 9.898C42.1943 12.368 42.9223 13.525 44.0923 13.525C44.9243 13.525 45.5743 12.771 45.5743 11.536C45.5743 10.301 45.0153 9.612 44.0013 9.612C43.4293 9.612 42.7403 9.95 42.1683 10.821L42.1033 9.729C42.6623 8.975 43.5463 8.533 44.2613 8.533C45.8733 8.533 46.9653 9.508 46.9653 11.536C46.9653 13.434 45.6523 14.682 44.1053 14.682ZM50.2323 10.808C48.8933 10.808 47.9833 9.69 47.9833 7.766C47.9833 5.855 48.8933 4.763 50.2323 4.763C51.5713 4.763 52.4813 5.855 52.4813 7.766C52.4813 9.69 51.5713 10.808 50.2323 10.808ZM50.2323 9.924C50.8953 9.924 51.3763 9.235 51.3763 7.766C51.3763 6.297 50.8953 5.634 50.2323 5.634C49.5563 5.634 49.0753 6.297 49.0753 7.766C49.0753 9.235 49.5563 9.924 50.2323 9.924ZM50.5183 14.682L55.7703 4.763H56.7193L51.4673 14.682H50.5183ZM57.0313 14.682C55.6923 14.682 54.7823 13.577 54.7823 11.64C54.7823 9.729 55.6923 8.624 57.0313 8.624C58.3573 8.624 59.2673 9.729 59.2673 11.64C59.2673 13.577 58.3573 14.682 57.0313 14.682ZM57.0313 13.798C57.6943 13.798 58.1753 13.109 58.1753 11.64C58.1753 10.158 57.6943 9.521 57.0313 9.521C56.3553 9.521 55.8743 10.158 55.8743 11.64C55.8743 13.109 56.3553 13.798 57.0313 13.798Z" fill="#13AF35"/>
<defs>
<clipPath id="clip0_1691_2992">
<rect width="10" height="10" fill="white" transform="translate(4 4.5)"/>
</clipPath>
</defs>
</svg>
