<svg width="49" height="11" viewBox="0 0 49 11" fill="none" xmlns="http://www.w3.org/2000/svg">
<g clip-path="url(#clip0_1691_3295)">
<path d="M7.36621 7.30009L4.99956 9.66675L2.6329 7.30009" stroke="#FF3B30" stroke-linecap="round" stroke-linejoin="round"/>
<path d="M5 9.66675L5 1.33341" stroke="#FF3B30" stroke-linecap="round" stroke-linejoin="round"/>
</g>
<path d="M11.105 10.5V9.265H13.211V2.609H11.482V1.66C12.392 1.504 13.016 1.27 13.575 0.931999H14.706V9.265H16.578V10.5H11.105ZM21.4051 10.682C19.5851 10.682 18.1031 9.148 18.1031 5.898C18.1031 2.232 19.8191 0.763 21.7171 0.763C22.7831 0.763 23.5631 1.205 24.1091 1.79L23.2901 2.7C22.9391 2.284 22.3541 1.985 21.7951 1.985C20.5211 1.985 19.4941 2.973 19.4941 5.898C19.4941 8.368 20.2221 9.525 21.3921 9.525C22.2241 9.525 22.8741 8.771 22.8741 7.536C22.8741 6.301 22.3151 5.612 21.3011 5.612C20.7291 5.612 20.0401 5.95 19.4681 6.821L19.4031 5.729C19.9621 4.975 20.8461 4.533 21.5611 4.533C23.1731 4.533 24.2651 5.508 24.2651 7.536C24.2651 9.434 22.9521 10.682 21.4051 10.682ZM26.7651 10.682C26.1931 10.682 25.7641 10.24 25.7641 9.629C25.7641 9.005 26.1931 8.576 26.7651 8.576C27.3241 8.576 27.7661 9.005 27.7661 9.629C27.7661 10.24 27.3241 10.682 26.7651 10.682ZM32.6912 10.682C30.8712 10.682 29.3892 9.148 29.3892 5.898C29.3892 2.232 31.1052 0.763 33.0032 0.763C34.0692 0.763 34.8492 1.205 35.3952 1.79L34.5762 2.7C34.2252 2.284 33.6402 1.985 33.0812 1.985C31.8072 1.985 30.7802 2.973 30.7802 5.898C30.7802 8.368 31.5082 9.525 32.6782 9.525C33.5102 9.525 34.1602 8.771 34.1602 7.536C34.1602 6.301 33.6012 5.612 32.5872 5.612C32.0152 5.612 31.3262 5.95 30.7542 6.821L30.6892 5.729C31.2482 4.975 32.1322 4.533 32.8472 4.533C34.4592 4.533 35.5512 5.508 35.5512 7.536C35.5512 9.434 34.2382 10.682 32.6912 10.682ZM38.8183 6.808C37.4793 6.808 36.5693 5.69 36.5693 3.766C36.5693 1.855 37.4793 0.763 38.8183 0.763C40.1573 0.763 41.0673 1.855 41.0673 3.766C41.0673 5.69 40.1573 6.808 38.8183 6.808ZM38.8183 5.924C39.4813 5.924 39.9623 5.235 39.9623 3.766C39.9623 2.297 39.4813 1.634 38.8183 1.634C38.1423 1.634 37.6613 2.297 37.6613 3.766C37.6613 5.235 38.1423 5.924 38.8183 5.924ZM39.1043 10.682L44.3563 0.763H45.3053L40.0533 10.682H39.1043ZM45.6173 10.682C44.2783 10.682 43.3683 9.577 43.3683 7.64C43.3683 5.729 44.2783 4.624 45.6173 4.624C46.9433 4.624 47.8533 5.729 47.8533 7.64C47.8533 9.577 46.9433 10.682 45.6173 10.682ZM45.6173 9.798C46.2803 9.798 46.7613 9.109 46.7613 7.64C46.7613 6.158 46.2803 5.521 45.6173 5.521C44.9413 5.521 44.4603 6.158 44.4603 7.64C44.4603 9.109 44.9413 9.798 45.6173 9.798Z" fill="#FF3B30"/>
<defs>
<clipPath id="clip0_1691_3295">
<rect width="10" height="10" fill="white" transform="translate(10 10.5) rotate(-180)"/>
</clipPath>
</defs>
</svg>
