<svg width="59" height="19" viewBox="0 0 59 19" fill="none" xmlns="http://www.w3.org/2000/svg">
<rect width="59" height="19" rx="3.8" fill="#E7F7EB"/>
<g clip-path="url(#clip0_1691_2327)">
<path d="M6.63379 7.69991L9.00044 5.33325L11.3671 7.69991" stroke="#13AF35" stroke-linecap="round" stroke-linejoin="round"/>
<path d="M9 5.33325V13.6666" stroke="#13AF35" stroke-linecap="round" stroke-linejoin="round"/>
</g>
<path d="M15.105 14.5V13.265H17.211V6.609H15.482V5.66C16.392 5.504 17.016 5.27 17.575 4.932H18.706V13.265H20.578V14.5H15.105ZM25.1191 14.682C23.2341 14.682 22.0251 13.005 22.0251 9.677C22.0251 6.375 23.2341 4.763 25.1191 4.763C26.9911 4.763 28.2131 6.375 28.2131 9.677C28.2131 13.005 26.9911 14.682 25.1191 14.682ZM25.1191 13.486C26.0941 13.486 26.7701 12.446 26.7701 9.677C26.7701 6.947 26.0941 5.933 25.1191 5.933C24.1441 5.933 23.4551 6.947 23.4551 9.677C23.4551 12.446 24.1441 13.486 25.1191 13.486ZM32.5331 14.682C30.6481 14.682 29.4391 13.005 29.4391 9.677C29.4391 6.375 30.6481 4.763 32.5331 4.763C34.4051 4.763 35.6271 6.375 35.6271 9.677C35.6271 13.005 34.4051 14.682 32.5331 14.682ZM32.5331 13.486C33.5081 13.486 34.1841 12.446 34.1841 9.677C34.1841 6.947 33.5081 5.933 32.5331 5.933C31.5581 5.933 30.8691 6.947 30.8691 9.677C30.8691 12.446 31.5581 13.486 32.5331 13.486ZM38.9462 10.808C37.6072 10.808 36.6972 9.69 36.6972 7.766C36.6972 5.855 37.6072 4.763 38.9462 4.763C40.2852 4.763 41.1952 5.855 41.1952 7.766C41.1952 9.69 40.2852 10.808 38.9462 10.808ZM38.9462 9.924C39.6092 9.924 40.0902 9.235 40.0902 7.766C40.0902 6.297 39.6092 5.634 38.9462 5.634C38.2702 5.634 37.7892 6.297 37.7892 7.766C37.7892 9.235 38.2702 9.924 38.9462 9.924ZM39.2322 14.682L44.4842 4.763H45.4332L40.1812 14.682H39.2322ZM45.7452 14.682C44.4062 14.682 43.4962 13.577 43.4962 11.64C43.4962 9.729 44.4062 8.624 45.7452 8.624C47.0712 8.624 47.9812 9.729 47.9812 11.64C47.9812 13.577 47.0712 14.682 45.7452 14.682ZM45.7452 13.798C46.4082 13.798 46.8892 13.109 46.8892 11.64C46.8892 10.158 46.4082 9.521 45.7452 9.521C45.0692 9.521 44.5882 10.158 44.5882 11.64C44.5882 13.109 45.0692 13.798 45.7452 13.798Z" fill="#13AF35"/>
<defs>
<clipPath id="clip0_1691_2327">
<rect width="10" height="10" fill="white" transform="translate(4 4.5)"/>
</clipPath>
</defs>
</svg>
