<svg width="59" height="19" viewBox="0 0 59 19" fill="none" xmlns="http://www.w3.org/2000/svg">
<rect width="59" height="19" rx="3.8" fill="#E7F7EB"/>
<g clip-path="url(#clip0_1691_2358)">
<path d="M6.63379 7.69991L9.00044 5.33325L11.3671 7.69991" stroke="#13AF35" stroke-linecap="round" stroke-linejoin="round"/>
<path d="M9 5.33325V13.6666" stroke="#13AF35" stroke-linecap="round" stroke-linejoin="round"/>
</g>
<path d="M18.394 14.5V8.26C18.394 7.753 18.433 6.934 18.472 6.414H18.407C18.173 6.895 17.913 7.402 17.64 7.896L15.768 10.769H21.02V11.939H14.26V10.925L18.056 4.932H19.798V14.5H18.394ZM23.9101 14.5C24.0791 11.016 24.6901 8.78 26.5491 6.206H22.0511V4.932H28.2001V5.842C25.9641 8.65 25.6131 10.769 25.4441 14.5H23.9101ZM31.5321 10.808C30.1931 10.808 29.2831 9.69 29.2831 7.766C29.2831 5.855 30.1931 4.763 31.5321 4.763C32.8711 4.763 33.7811 5.855 33.7811 7.766C33.7811 9.69 32.8711 10.808 31.5321 10.808ZM31.5321 9.924C32.1951 9.924 32.6761 9.235 32.6761 7.766C32.6761 6.297 32.1951 5.634 31.5321 5.634C30.8561 5.634 30.3751 6.297 30.3751 7.766C30.3751 9.235 30.8561 9.924 31.5321 9.924ZM31.8181 14.682L37.0701 4.763H38.0191L32.7671 14.682H31.8181ZM38.3311 14.682C36.9921 14.682 36.0821 13.577 36.0821 11.64C36.0821 9.729 36.9921 8.624 38.3311 8.624C39.6571 8.624 40.5671 9.729 40.5671 11.64C40.5671 13.577 39.6571 14.682 38.3311 14.682ZM38.3311 13.798C38.9941 13.798 39.4751 13.109 39.4751 11.64C39.4751 10.158 38.9941 9.521 38.3311 9.521C37.6551 9.521 37.1741 10.158 37.1741 11.64C37.1741 13.109 37.6551 13.798 38.3311 13.798Z" fill="#13AF35"/>
<defs>
<clipPath id="clip0_1691_2358">
<rect width="10" height="10" fill="white" transform="translate(4 4.5)"/>
</clipPath>
</defs>
</svg>
