<svg width="49" height="11" viewBox="0 0 49 11" fill="none" xmlns="http://www.w3.org/2000/svg">
<g clip-path="url(#clip0_1691_3277)">
<path d="M2.63379 3.69991L5.00044 1.33325L7.3671 3.69991" stroke="#13AF35" stroke-linecap="round" stroke-linejoin="round"/>
<path d="M5 1.33325V9.66659" stroke="#13AF35" stroke-linecap="round" stroke-linejoin="round"/>
</g>
<path d="M10.559 10.5V9.629C13.393 7.133 14.836 5.274 14.836 3.701C14.836 2.674 14.29 1.959 13.224 1.959C12.47 1.959 11.846 2.427 11.339 3.012L10.481 2.193C11.313 1.296 12.158 0.763 13.406 0.763C15.161 0.763 16.292 1.894 16.292 3.636C16.292 5.469 14.81 7.38 12.782 9.33C13.276 9.278 13.887 9.226 14.355 9.226H16.747V10.5H10.559ZM20.8981 10.682C19.3901 10.682 18.4411 10.071 17.7521 9.395L18.4801 8.42C19.0131 8.966 19.7151 9.447 20.7161 9.447C21.7951 9.447 22.6011 8.68 22.6011 7.406C22.6011 6.145 21.8731 5.417 20.7811 5.417C20.1831 5.417 19.8191 5.586 19.2601 5.95L18.5191 5.482L18.8051 0.931999H23.6671V2.206H20.1181L19.8971 4.65C20.3001 4.442 20.6901 4.325 21.2101 4.325C22.8091 4.325 24.1221 5.261 24.1221 7.367C24.1221 9.473 22.5621 10.682 20.8981 10.682ZM27.5321 6.808C26.1931 6.808 25.2831 5.69 25.2831 3.766C25.2831 1.855 26.1931 0.763 27.5321 0.763C28.8711 0.763 29.7811 1.855 29.7811 3.766C29.7811 5.69 28.8711 6.808 27.5321 6.808ZM27.5321 5.924C28.1951 5.924 28.6761 5.235 28.6761 3.766C28.6761 2.297 28.1951 1.634 27.5321 1.634C26.8561 1.634 26.3751 2.297 26.3751 3.766C26.3751 5.235 26.8561 5.924 27.5321 5.924ZM27.8181 10.682L33.0701 0.763H34.0191L28.7671 10.682H27.8181ZM34.3311 10.682C32.9921 10.682 32.0821 9.577 32.0821 7.64C32.0821 5.729 32.9921 4.624 34.3311 4.624C35.6571 4.624 36.5671 5.729 36.5671 7.64C36.5671 9.577 35.6571 10.682 34.3311 10.682ZM34.3311 9.798C34.9941 9.798 35.4751 9.109 35.4751 7.64C35.4751 6.158 34.9941 5.521 34.3311 5.521C33.6551 5.521 33.1741 6.158 33.1741 7.64C33.1741 9.109 33.6551 9.798 34.3311 9.798Z" fill="#13AF35"/>
<defs>
<clipPath id="clip0_1691_3277">
<rect width="10" height="10" fill="white" transform="translate(0 0.5)"/>
</clipPath>
</defs>
</svg>
