<svg width="59" height="19" viewBox="0 0 59 19" fill="none" xmlns="http://www.w3.org/2000/svg">
<rect width="59" height="19" rx="3.8" fill="#E7F7EB"/>
<g clip-path="url(#clip0_1691_2291)">
<path d="M6.63379 7.69991L9.00044 5.33325L11.3671 7.69991" stroke="#13AF35" stroke-linecap="round" stroke-linejoin="round"/>
<path d="M9 5.33325V13.6666" stroke="#13AF35" stroke-linecap="round" stroke-linejoin="round"/>
</g>
<path d="M15.105 14.5V13.265H17.211V6.609H15.482V5.66C16.392 5.504 17.016 5.27 17.575 4.932H18.706V13.265H20.578V14.5H15.105ZM21.9731 14.5V13.629C24.8071 11.133 26.2501 9.274 26.2501 7.701C26.2501 6.674 25.7041 5.959 24.6381 5.959C23.8841 5.959 23.2601 6.427 22.7531 7.012L21.8951 6.193C22.7271 5.296 23.5721 4.763 24.8201 4.763C26.5751 4.763 27.7061 5.894 27.7061 7.636C27.7061 9.469 26.2241 11.38 24.1961 13.33C24.6901 13.278 25.3011 13.226 25.7691 13.226H28.1611V14.5H21.9731ZM30.7651 14.682C30.1931 14.682 29.7641 14.24 29.7641 13.629C29.7641 13.005 30.1931 12.576 30.7651 12.576C31.3241 12.576 31.7661 13.005 31.7661 13.629C31.7661 14.24 31.3241 14.682 30.7651 14.682ZM36.1842 14.682C34.6762 14.682 33.7272 14.071 33.0382 13.395L33.7662 12.42C34.2992 12.966 35.0012 13.447 36.0022 13.447C37.0812 13.447 37.8872 12.68 37.8872 11.406C37.8872 10.145 37.1592 9.417 36.0672 9.417C35.4692 9.417 35.1052 9.586 34.5462 9.95L33.8052 9.482L34.0912 4.932H38.9532V6.206H35.4042L35.1832 8.65C35.5862 8.442 35.9762 8.325 36.4962 8.325C38.0952 8.325 39.4082 9.261 39.4082 11.367C39.4082 13.473 37.8482 14.682 36.1842 14.682ZM42.8183 10.808C41.4793 10.808 40.5693 9.69 40.5693 7.766C40.5693 5.855 41.4793 4.763 42.8183 4.763C44.1573 4.763 45.0673 5.855 45.0673 7.766C45.0673 9.69 44.1573 10.808 42.8183 10.808ZM42.8183 9.924C43.4813 9.924 43.9623 9.235 43.9623 7.766C43.9623 6.297 43.4813 5.634 42.8183 5.634C42.1423 5.634 41.6613 6.297 41.6613 7.766C41.6613 9.235 42.1423 9.924 42.8183 9.924ZM43.1043 14.682L48.3563 4.763H49.3053L44.0533 14.682H43.1043ZM49.6173 14.682C48.2783 14.682 47.3683 13.577 47.3683 11.64C47.3683 9.729 48.2783 8.624 49.6173 8.624C50.9433 8.624 51.8533 9.729 51.8533 11.64C51.8533 13.577 50.9433 14.682 49.6173 14.682ZM49.6173 13.798C50.2803 13.798 50.7613 13.109 50.7613 11.64C50.7613 10.158 50.2803 9.521 49.6173 9.521C48.9413 9.521 48.4603 10.158 48.4603 11.64C48.4603 13.109 48.9413 13.798 49.6173 13.798Z" fill="#13AF35"/>
<defs>
<clipPath id="clip0_1691_2291">
<rect width="10" height="10" fill="white" transform="translate(4 4.5)"/>
</clipPath>
</defs>
</svg>
