<svg width="95" height="27" viewBox="0 0 95 27" fill="none" xmlns="http://www.w3.org/2000/svg">
<path d="M2.72 24V20.96H7.904V4.576H3.648V2.24C5.888 1.856 7.424 1.28 8.8 0.447998H11.584V20.96H16.192V24H2.72ZM27.37 24.448C22.73 24.448 19.754 20.32 19.754 12.128C19.754 4 22.73 0.0319996 27.37 0.0319996C31.978 0.0319996 34.986 4 34.986 12.128C34.986 20.32 31.978 24.448 27.37 24.448ZM27.37 21.504C29.77 21.504 31.434 18.944 31.434 12.128C31.434 5.408 29.77 2.912 27.37 2.912C24.97 2.912 23.274 5.408 23.274 12.128C23.274 18.944 24.97 21.504 27.37 21.504Z" fill="#291C0A"/>
<path d="M43.968 20.024C42.484 20.024 41.434 18.792 41.434 16.72C41.434 14.648 42.484 13.458 43.968 13.458C45.452 13.458 46.502 14.648 46.502 16.72C46.502 18.792 45.452 20.024 43.968 20.024ZM43.968 18.862C44.57 18.862 45.032 18.232 45.032 16.72C45.032 15.194 44.57 14.62 43.968 14.62C43.352 14.62 42.89 15.194 42.89 16.72C42.89 18.232 43.352 18.862 43.968 18.862ZM44.304 24.196L49.932 13.458H51.164L45.522 24.196H44.304ZM51.5 24.196C50.03 24.196 48.98 22.978 48.98 20.892C48.98 18.82 50.03 17.616 51.5 17.616C52.97 17.616 54.02 18.82 54.02 20.892C54.02 22.978 52.97 24.196 51.5 24.196ZM51.5 23.034C52.102 23.034 52.578 22.418 52.578 20.892C52.578 19.366 52.102 18.792 51.5 18.792C50.898 18.792 50.422 19.366 50.422 20.892C50.422 22.418 50.898 23.034 51.5 23.034ZM57.8343 26.548L61.3343 12.716H62.6923L59.2063 26.548H57.8343ZM66.8683 14.186H79.6083V15.712H66.8683V14.186ZM68.5203 18.96H72.1603V20.192H68.5203V18.96ZM68.5203 21.102H72.1603V22.348H68.5203V21.102ZM74.3863 16.818H75.9403V22.558H74.3863V16.818ZM71.5723 16.678H73.1963V23.608C73.1963 24.322 73.0563 24.714 72.5803 24.952C72.1183 25.204 71.4743 25.218 70.6063 25.218C70.5223 24.798 70.2843 24.182 70.0743 23.79C70.5923 23.818 71.1663 23.818 71.3343 23.804C71.5163 23.804 71.5723 23.748 71.5723 23.58V16.678ZM77.2003 16.44H78.8523V23.426C78.8523 24.238 78.6983 24.672 78.1383 24.924C77.6063 25.176 76.8503 25.232 75.8143 25.218C75.7303 24.77 75.4643 24.056 75.2263 23.622C75.9403 23.664 76.6683 23.664 76.9063 23.65C77.1303 23.65 77.2003 23.594 77.2003 23.398V16.44ZM68.8003 12.66L70.3963 12.1C70.9003 12.646 71.4603 13.388 71.6983 13.92L70.0043 14.522C69.8083 14.018 69.2903 13.22 68.8003 12.66ZM75.9823 12.072L77.8163 12.618C77.2423 13.514 76.6263 14.41 76.1363 15.026L74.6243 14.508C75.1003 13.85 75.6743 12.828 75.9823 12.072ZM67.6383 16.678H72.0483V18.078H69.2203V25.176H67.6383V16.678ZM84.0043 12.772H91.0043V14.41H84.0043V12.772ZM84.0183 16.118H91.0743V17.714H84.0183V16.118ZM83.9483 19.436H90.9763V21.06H83.9483V19.436ZM82.8563 12.772H84.5783V17.406C84.5783 19.842 84.2003 23.272 81.8343 25.26C81.5823 24.91 80.8963 24.28 80.5323 24.056C82.6603 22.25 82.8563 19.548 82.8563 17.406V12.772ZM90.2203 12.772H91.9983V23.132C91.9983 24.126 91.7603 24.63 91.1163 24.91C90.4443 25.204 89.4503 25.232 87.9943 25.232C87.8963 24.728 87.5743 23.916 87.2943 23.468C88.2883 23.524 89.4503 23.51 89.7863 23.51C90.1083 23.496 90.2203 23.398 90.2203 23.104V12.772Z" fill="#291C0A"/>
</svg>
