<svg width="77" height="27" viewBox="0 0 77 27" fill="none" xmlns="http://www.w3.org/2000/svg">
<path d="M10.816 24V8.64C10.816 7.392 10.912 5.376 11.008 4.096H10.848C10.272 5.28 9.632 6.528 8.96 7.744L4.352 14.816H17.28V17.696H0.64V15.2L9.984 0.447998H14.272V24H10.816Z" fill="#291C0A"/>
<path d="M28.656 17.42V19.842H31.134V17.42H28.656ZM27.074 15.95H32.814V21.298H27.074V15.95ZM23.994 12.59H36.006V25.26H34.186V14.298H25.73V25.26H23.994V12.59ZM24.974 22.936H35.222V24.504H24.974V22.936ZM40.3539 26.548L43.8539 12.716H45.2119L41.7259 26.548H40.3539ZM55.6878 13.682C54.5398 15.348 52.4258 17.322 50.1438 18.68C49.9198 18.288 49.4438 17.686 49.0798 17.35C51.4598 16.034 53.7278 13.78 54.7638 12.016H56.4718C57.9698 14.186 60.2658 16.16 62.4778 17.196C62.0438 17.602 61.6658 18.162 61.3578 18.666C59.2298 17.406 56.8918 15.348 55.6878 13.682ZM52.7338 16.398H58.6978V17.952H52.7338V16.398ZM50.8158 19.296H58.9218V20.878H50.8158V19.296ZM58.6418 19.296H58.8798L59.1738 19.212L60.5178 19.604C59.8318 21.326 58.8098 23.524 57.9558 25.302L56.1638 24.826C57.0598 23.062 58.1378 20.738 58.6418 19.478V19.296ZM66.5238 12.772H73.5238V14.41H66.5238V12.772ZM66.5378 16.118H73.5938V17.714H66.5378V16.118ZM66.4678 19.436H73.4958V21.06H66.4678V19.436ZM65.3758 12.772H67.0978V17.406C67.0978 19.842 66.7198 23.272 64.3538 25.26C64.1018 24.91 63.4158 24.28 63.0518 24.056C65.1798 22.25 65.3758 19.548 65.3758 17.406V12.772ZM72.7398 12.772H74.5178V23.132C74.5178 24.126 74.2798 24.63 73.6358 24.91C72.9638 25.204 71.9698 25.232 70.5138 25.232C70.4158 24.728 70.0938 23.916 69.8138 23.468C70.8078 23.524 71.9698 23.51 72.3058 23.51C72.6278 23.496 72.7398 23.398 72.7398 23.104V12.772Z" fill="#291C0A"/>
</svg>
