<svg width="113" height="27" viewBox="0 0 113 27" fill="none" xmlns="http://www.w3.org/2000/svg">
<path d="M2.72 24V20.96H7.904V4.576H3.648V2.24C5.888 1.856 7.424 1.28 8.8 0.447998H11.584V20.96H16.192V24H2.72ZM19.626 24V21.856C26.602 15.712 30.154 11.136 30.154 7.264C30.154 4.736 28.81 2.976 26.186 2.976C24.33 2.976 22.794 4.128 21.546 5.568L19.434 3.552C21.482 1.344 23.562 0.0319996 26.634 0.0319996C30.954 0.0319996 33.738 2.816 33.738 7.104C33.738 11.616 30.09 16.32 25.098 21.12C26.314 20.992 27.818 20.864 28.97 20.864H34.858V24H19.626ZM45.076 24.448C41.364 24.448 39.028 22.944 37.332 21.28L39.124 18.88C40.436 20.224 42.164 21.408 44.628 21.408C47.284 21.408 49.268 19.52 49.268 16.384C49.268 13.28 47.476 11.488 44.788 11.488C43.316 11.488 42.42 11.904 41.044 12.8L39.22 11.648L39.924 0.447998H51.892V3.584H43.156L42.612 9.6C43.604 9.088 44.564 8.8 45.844 8.8C49.78 8.8 53.012 11.104 53.012 16.288C53.012 21.472 49.172 24.448 45.076 24.448Z" fill="#291C0A"/>
<path d="M64.656 17.42V19.842H67.134V17.42H64.656ZM63.074 15.95H68.814V21.298H63.074V15.95ZM59.994 12.59H72.006V25.26H70.186V14.298H61.73V25.26H59.994V12.59ZM60.974 22.936H71.222V24.504H60.974V22.936ZM76.3539 26.548L79.8539 12.716H81.2119L77.7259 26.548H76.3539ZM91.6878 13.682C90.5398 15.348 88.4258 17.322 86.1438 18.68C85.9198 18.288 85.4438 17.686 85.0798 17.35C87.4598 16.034 89.7278 13.78 90.7638 12.016H92.4718C93.9698 14.186 96.2658 16.16 98.4778 17.196C98.0438 17.602 97.6658 18.162 97.3578 18.666C95.2298 17.406 92.8918 15.348 91.6878 13.682ZM88.7338 16.398H94.6978V17.952H88.7338V16.398ZM86.8158 19.296H94.9218V20.878H86.8158V19.296ZM94.6418 19.296H94.8798L95.1738 19.212L96.5178 19.604C95.8318 21.326 94.8098 23.524 93.9558 25.302L92.1638 24.826C93.0598 23.062 94.1378 20.738 94.6418 19.478V19.296ZM102.524 12.772H109.524V14.41H102.524V12.772ZM102.538 16.118H109.594V17.714H102.538V16.118ZM102.468 19.436H109.496V21.06H102.468V19.436ZM101.376 12.772H103.098V17.406C103.098 19.842 102.72 23.272 100.354 25.26C100.102 24.91 99.4158 24.28 99.0518 24.056C101.18 22.25 101.376 19.548 101.376 17.406V12.772ZM108.74 12.772H110.518V23.132C110.518 24.126 110.28 24.63 109.636 24.91C108.964 25.204 107.97 25.232 106.514 25.232C106.416 24.728 106.094 23.916 105.814 23.468C106.808 23.524 107.97 23.51 108.306 23.51C108.628 23.496 108.74 23.398 108.74 23.104V12.772Z" fill="#291C0A"/>
</svg>
