<svg width="95" height="27" viewBox="0 0 95 27" fill="none" xmlns="http://www.w3.org/2000/svg">
<path d="M2.72 24V20.96H7.904V4.576H3.648V2.24C5.888 1.856 7.424 1.28 8.8 0.447998H11.584V20.96H16.192V24H2.72ZM27.37 24.448C22.73 24.448 19.754 20.32 19.754 12.128C19.754 4 22.73 0.0319996 27.37 0.0319996C31.978 0.0319996 34.986 4 34.986 12.128C34.986 20.32 31.978 24.448 27.37 24.448ZM27.37 21.504C29.77 21.504 31.434 18.944 31.434 12.128C31.434 5.408 29.77 2.912 27.37 2.912C24.97 2.912 23.274 5.408 23.274 12.128C23.274 18.944 24.97 21.504 27.37 21.504Z" fill="#291C0A"/>
<path d="M46.824 12.45H48.742C48.616 14.802 48.434 21.634 42.708 25.148C42.414 24.714 41.868 24.196 41.294 23.804C46.922 20.682 46.726 14.284 46.824 12.45ZM48.686 12.814C48.728 14.032 49.022 21.018 54.762 23.706C54.23 24.112 53.726 24.672 53.474 25.134C47.44 22.138 47.174 14.424 47.062 12.982L48.686 12.814ZM58.3539 26.548L61.8539 12.716H63.2119L59.7259 26.548H58.3539ZM73.6878 13.682C72.5398 15.348 70.4258 17.322 68.1438 18.68C67.9198 18.288 67.4438 17.686 67.0798 17.35C69.4598 16.034 71.7278 13.78 72.7638 12.016H74.4718C75.9698 14.186 78.2658 16.16 80.4778 17.196C80.0438 17.602 79.6658 18.162 79.3578 18.666C77.2298 17.406 74.8918 15.348 73.6878 13.682ZM70.7338 16.398H76.6978V17.952H70.7338V16.398ZM68.8158 19.296H76.9218V20.878H68.8158V19.296ZM76.6418 19.296H76.8798L77.1738 19.212L78.5178 19.604C77.8318 21.326 76.8098 23.524 75.9558 25.302L74.1638 24.826C75.0598 23.062 76.1378 20.738 76.6418 19.478V19.296ZM84.5238 12.772H91.5238V14.41H84.5238V12.772ZM84.5378 16.118H91.5938V17.714H84.5378V16.118ZM84.4678 19.436H91.4958V21.06H84.4678V19.436ZM83.3758 12.772H85.0978V17.406C85.0978 19.842 84.7198 23.272 82.3538 25.26C82.1018 24.91 81.4158 24.28 81.0518 24.056C83.1798 22.25 83.3758 19.548 83.3758 17.406V12.772ZM90.7398 12.772H92.5178V23.132C92.5178 24.126 92.2798 24.63 91.6358 24.91C90.9638 25.204 89.9698 25.232 88.5138 25.232C88.4158 24.728 88.0938 23.916 87.8138 23.468C88.8078 23.524 89.9698 23.51 90.3058 23.51C90.6278 23.496 90.7398 23.398 90.7398 23.104V12.772Z" fill="#291C0A"/>
</svg>
