<svg width="73" height="26" viewBox="0 0 73 26" fill="none" xmlns="http://www.w3.org/2000/svg">
<path d="M10.816 24V8.64C10.816 7.392 10.912 5.376 11.008 4.096H10.848C10.272 5.28 9.632 6.528 8.96 7.744L4.352 14.816H17.28V17.696H0.64V15.2L9.984 0.447998H14.272V24H10.816ZM26.826 24.448C23.114 24.448 20.778 22.944 19.082 21.28L20.874 18.88C22.186 20.224 23.914 21.408 26.378 21.408C29.034 21.408 31.018 19.52 31.018 16.384C31.018 13.28 29.226 11.488 26.538 11.488C25.066 11.488 24.17 11.904 22.794 12.8L20.97 11.648L21.674 0.447998H33.642V3.584H24.906L24.362 9.6C25.354 9.088 26.314 8.8 27.594 8.8C31.53 8.8 34.762 11.104 34.762 16.288C34.762 21.472 30.922 24.448 26.826 24.448ZM45.62 24.448C40.98 24.448 38.004 20.32 38.004 12.128C38.004 4 40.98 0.0319996 45.62 0.0319996C50.228 0.0319996 53.236 4 53.236 12.128C53.236 20.32 50.228 24.448 45.62 24.448ZM45.62 21.504C48.02 21.504 49.684 18.944 49.684 12.128C49.684 5.408 48.02 2.912 45.62 2.912C43.22 2.912 41.524 5.408 41.524 12.128C41.524 18.944 43.22 21.504 45.62 21.504Z" fill="#291C0A"/>
<path d="M64.824 12.45H66.742C66.616 14.802 66.434 21.634 60.708 25.148C60.414 24.714 59.868 24.196 59.294 23.804C64.922 20.682 64.726 14.284 64.824 12.45ZM66.686 12.814C66.728 14.032 67.022 21.018 72.762 23.706C72.23 24.112 71.726 24.672 71.474 25.134C65.44 22.138 65.174 14.424 65.062 12.982L66.686 12.814Z" fill="#291C0A"/>
</svg>
